STARTFONT 2.1
FONT -FontForge-Logisoso-Medium-R-Normal--32-310-75-75-P-142-ISO10646-1
SIZE 31 75 75
FONTBOUNDINGBOX 86 33 -2 -6
COMMENT "Generated by fontforge, http://fontforge.sourceforge.net"
COMMENT "Created by Mathieu Gabiot with FontForge 2.0 (http://fontforge.sf.net) - Brussels - 2009"
STARTPROPERTIES 40
FOUNDRY "FontForge"
FAMILY_NAME "Logisoso"
WEIGHT_NAME "Medium"
SLANT "R"
SETWIDTH_NAME "Normal"
ADD_STYLE_NAME ""
PIXEL_SIZE 32
POINT_SIZE 310
RESOLUTION_X 75
RESOLUTION_Y 75
SPACING "P"
AVERAGE_WIDTH 142
CHARSET_REGISTRY "ISO10646"
CHARSET_ENCODING "1"
FONTNAME_REGISTRY ""
CHARSET_COLLECTIONS "ISO8859-2 ISO8859-9 ISO8859-4 ISO10646-1"
FONT_NAME "Logisoso"
FACE_NAME "Logisoso"
COPYRIGHT "Created by Mathieu Gabiot with FontForge 2.0 (http://fontforge.sf.net) - Brussels - 2009"
FONT_VERSION "1.0"
FONT_ASCENT 26
FONT_DESCENT 6
UNDERLINE_POSITION -11
UNDERLINE_THICKNESS 2
X_HEIGHT 16
CAP_HEIGHT 21
RAW_ASCENT 800
RAW_DESCENT 200
NORM_SPACE 14
RELATIVE_WEIGHT 50
RELATIVE_SETWIDTH 30
SUPERSCRIPT_X 0
SUPERSCRIPT_Y 15
SUPERSCRIPT_SIZE 22
SUBSCRIPT_X 0
SUBSCRIPT_Y 4
SUBSCRIPT_SIZE 22
FIGURE_WIDTH 14
AVG_LOWERCASE_WIDTH 139
AVG_UPPERCASE_WIDTH 139
ENDPROPERTIES
CHARS 517
STARTCHAR uni001E
ENCODING 30
SWIDTH 450 0
DWIDTH 14 0
BBX 1 1 0 0
BITMAP
00
ENDCHAR
STARTCHAR uni001F
ENCODING 31
SWIDTH 450 0
DWIDTH 14 0
BBX 1 1 0 0
BITMAP
00
ENDCHAR
STARTCHAR space
ENCODING 32
SWIDTH 450 0
DWIDTH 14 0
BBX 1 1 0 0
BITMAP
00
ENDCHAR
STARTCHAR exclam
ENCODING 33
SWIDTH 260 0
DWIDTH 8 0
BBX 3 22 3 0
BITMAP
E0
E0
E0
E0
E0
E0
E0
E0
E0
E0
E0
E0
E0
E0
E0
E0
E0
00
00
C0
C0
C0
ENDCHAR
STARTCHAR quotedbl
ENCODING 34
SWIDTH 450 0
DWIDTH 14 0
BBX 6 4 4 18
BITMAP
EC
EC
4C
48
ENDCHAR
STARTCHAR numbersign
ENCODING 35
SWIDTH 450 0
DWIDTH 14 0
BBX 11 22 2 0
BITMAP
1CE0
1CE0
1DC0
1DC0
3DC0
39C0
39C0
FFE0
FFE0
FFE0
3B80
7380
FFE0
FFE0
FFE0
7700
7700
F700
E700
E700
E700
E700
ENDCHAR
STARTCHAR dollar
ENCODING 36
SWIDTH 450 0
DWIDTH 14 0
BBX 11 28 2 -3
BITMAP
0E00
0E00
0E00
3F00
7F80
FBC0
E1E0
E0E0
C000
E000
F000
7800
3C00
1E00
0F00
0780
03C0
01C0
00E0
C0E0
E0E0
E1C0
7FC0
7F80
1F00
0E00
0E00
0E00
ENDCHAR
STARTCHAR percent
ENCODING 37
SWIDTH 450 0
DWIDTH 14 0
BBX 12 22 1 0
BITMAP
7870
7CE0
ECE0
7CC0
79C0
01C0
0380
0380
0380
0700
0700
0600
0E00
0E00
1C00
1C00
1C00
39E0
3BF0
3330
73F0
71E0
ENDCHAR
STARTCHAR ampersand
ENCODING 38
SWIDTH 450 0
DWIDTH 14 0
BBX 11 23 2 0
BITMAP
0E00
3F00
7F80
73C0
E1C0
E000
E000
7000
7000
7800
F800
FC00
DC00
DEE0
CEE0
CEE0
C7E0
C7E0
E3E0
E3C0
FFC0
7FC0
1EE0
ENDCHAR
STARTCHAR quotesingle
ENCODING 39
SWIDTH 260 0
DWIDTH 8 0
BBX 2 3 3 19
BITMAP
C0
C0
40
ENDCHAR
STARTCHAR parenleft
ENCODING 40
SWIDTH 450 0
DWIDTH 14 0
BBX 6 22 4 0
BITMAP
18
3C
38
38
70
70
60
E0
E0
E0
E0
E0
E0
E0
E0
70
70
70
38
38
1C
18
ENDCHAR
STARTCHAR parenright
ENCODING 41
SWIDTH 450 0
DWIDTH 14 0
BBX 5 22 5 0
BITMAP
40
E0
E0
70
70
38
38
38
38
38
38
38
38
38
38
38
30
70
70
E0
E0
40
ENDCHAR
STARTCHAR asterisk
ENCODING 42
SWIDTH 450 0
DWIDTH 14 0
BBX 9 10 3 16
BITMAP
1800
1800
9900
FF80
7F00
3E00
FF00
FB80
9900
1800
ENDCHAR
STARTCHAR plus
ENCODING 43
SWIDTH 450 0
DWIDTH 14 0
BBX 8 9 3 4
BITMAP
1C
1C
1C
FF
FF
FF
1C
1C
1C
ENDCHAR
STARTCHAR comma
ENCODING 44
SWIDTH 260 0
DWIDTH 8 0
BBX 3 4 3 -1
BITMAP
C0
E0
C0
40
ENDCHAR
STARTCHAR hyphen
ENCODING 45
SWIDTH 450 0
DWIDTH 14 0
BBX 8 3 3 7
BITMAP
FF
FF
FF
ENDCHAR
STARTCHAR period
ENCODING 46
SWIDTH 260 0
DWIDTH 8 0
BBX 3 3 3 0
BITMAP
C0
E0
C0
ENDCHAR
STARTCHAR slash
ENCODING 47
SWIDTH 450 0
DWIDTH 14 0
BBX 10 22 2 0
BITMAP
01C0
01C0
01C0
0380
0380
0380
0700
0700
0F00
0E00
0E00
1C00
1C00
1C00
3800
3800
3800
7000
7000
7000
E000
E000
ENDCHAR
STARTCHAR zero
ENCODING 48
SWIDTH 450 0
DWIDTH 14 0
BBX 11 22 2 0
BITMAP
3F00
7F80
FBC0
E1E0
C0E0
C0E0
C0E0
C0E0
C0E0
C0E0
C0E0
C0E0
C0E0
C0E0
C0E0
C0E0
C0E0
E0E0
E1C0
7FC0
7F80
1E00
ENDCHAR
STARTCHAR one
ENCODING 49
SWIDTH 450 0
DWIDTH 14 0
BBX 5 22 5 0
BITMAP
38
38
78
F8
F8
D8
18
18
18
18
18
18
18
18
18
18
18
18
18
18
18
18
ENDCHAR
STARTCHAR two
ENCODING 50
SWIDTH 450 0
DWIDTH 14 0
BBX 11 22 2 0
BITMAP
3F00
7F80
FBC0
E1E0
E0E0
C0E0
E0E0
C1C0
03C0
0380
0700
0700
0E00
1E00
1C00
3800
7800
7000
E000
FFE0
FFE0
FFE0
ENDCHAR
STARTCHAR three
ENCODING 51
SWIDTH 450 0
DWIDTH 14 0
BBX 11 22 2 0
BITMAP
FFE0
FFE0
01E0
01C0
0380
0780
0700
0F00
0E00
0F80
0FC0
01C0
00E0
00E0
00E0
00E0
00E0
00E0
E1C0
FFC0
7F80
1E00
ENDCHAR
STARTCHAR four
ENCODING 52
SWIDTH 450 0
DWIDTH 14 0
BBX 11 22 2 0
BITMAP
1C00
1C00
1C00
3800
3800
3800
3800
7000
7000
7000
7000
E700
E700
E700
E700
FFE0
FFE0
FFE0
0700
0700
0700
0700
ENDCHAR
STARTCHAR five
ENCODING 53
SWIDTH 450 0
DWIDTH 14 0
BBX 11 22 2 0
BITMAP
FFE0
FFE0
E000
C000
C000
C000
C000
FF00
FF80
FFC0
E1C0
E0E0
C0E0
00E0
00E0
00E0
C0E0
E0E0
E1C0
7FC0
7F80
1F00
ENDCHAR
STARTCHAR six
ENCODING 54
SWIDTH 450 0
DWIDTH 14 0
BBX 11 22 2 0
BITMAP
3F00
7F80
F3C0
E1E0
C0E0
C000
C000
C000
DE00
FF80
FFC0
E1C0
E0E0
C0E0
C0E0
C0E0
C0E0
E0E0
E1C0
FFC0
7F80
1F00
ENDCHAR
STARTCHAR seven
ENCODING 55
SWIDTH 450 0
DWIDTH 14 0
BBX 11 22 2 0
BITMAP
FFE0
FFE0
C1E0
C1E0
C1C0
01C0
03C0
0380
0380
0380
0780
0700
0700
0700
0F00
0E00
0E00
0E00
1E00
1C00
1C00
1C00
ENDCHAR
STARTCHAR eight
ENCODING 56
SWIDTH 450 0
DWIDTH 14 0
BBX 11 22 2 0
BITMAP
3F00
7F80
FBC0
E1E0
E0E0
C0E0
C0E0
E0E0
E1C0
FFC0
7F80
7FC0
F3C0
E0E0
C0E0
C0E0
C0E0
E0E0
E1C0
7FC0
7F80
1E00
ENDCHAR
STARTCHAR nine
ENCODING 57
SWIDTH 450 0
DWIDTH 14 0
BBX 11 22 2 0
BITMAP
3F00
7F80
FBC0
E1E0
E0E0
C0E0
C0E0
C0E0
C0E0
E0E0
F3E0
7FE0
3FE0
0CE0
00E0
00E0
C0E0
E0E0
E1C0
7FC0
7F80
1F00
ENDCHAR
STARTCHAR colon
ENCODING 58
SWIDTH 260 0
DWIDTH 8 0
BBX 3 13 3 3
BITMAP
40
E0
C0
00
00
00
00
00
00
00
40
E0
C0
ENDCHAR
STARTCHAR semicolon
ENCODING 59
SWIDTH 260 0
DWIDTH 8 0
BBX 3 15 3 1
BITMAP
40
E0
C0
00
00
00
00
00
00
00
40
E0
C0
40
40
ENDCHAR
STARTCHAR less
ENCODING 60
SWIDTH 450 0
DWIDTH 14 0
BBX 7 13 4 4
BITMAP
06
0E
1C
38
F0
E0
C0
E0
70
38
1E
0E
02
ENDCHAR
STARTCHAR equal
ENCODING 61
SWIDTH 450 0
DWIDTH 14 0
BBX 10 8 2 3
BITMAP
FFC0
FFC0
0000
0000
0000
FFC0
FFC0
FFC0
ENDCHAR
STARTCHAR greater
ENCODING 62
SWIDTH 450 0
DWIDTH 14 0
BBX 7 13 4 4
BITMAP
80
C0
F0
78
3C
0E
06
0E
3C
78
E0
C0
80
ENDCHAR
STARTCHAR question
ENCODING 63
SWIDTH 450 0
DWIDTH 14 0
BBX 11 23 2 0
BITMAP
0E00
3F80
7FC0
F1C0
E0E0
C0E0
00E0
00E0
01C0
03C0
0780
0F00
0E00
0C00
0C00
0C00
0C00
0C00
0C00
0000
0C00
0C00
0C00
ENDCHAR
STARTCHAR at
ENCODING 64
SWIDTH 715 0
DWIDTH 23 0
BBX 19 27 2 -6
BITMAP
03F800
0FFE00
1FFF00
3C0780
7803C0
F05DC0
E1FCE0
E3FCE0
C7BCE0
C71C60
C71C60
C71C60
C71C60
C71C60
C71C60
C71C60
C71C60
C71CE0
E3FFE0
E3FFC0
E1E780
700000
780000
3E0000
1FFF80
07FF80
00FF80
ENDCHAR
STARTCHAR A
ENCODING 65
SWIDTH 450 0
DWIDTH 14 0
BBX 11 22 2 0
BITMAP
0E00
1E00
1E00
1E00
1F00
1F00
1F00
3F00
3F00
3B00
3B80
3380
7380
7380
7180
7FC0
7FC0
FFC0
E1C0
E0C0
E0C0
E0E0
ENDCHAR
STARTCHAR B
ENCODING 66
SWIDTH 450 0
DWIDTH 14 0
BBX 11 22 2 0
BITMAP
FF00
FF80
E7C0
C1C0
C1C0
C0C0
C1C0
C1C0
E7C0
FF80
FF80
C7C0
C1C0
C0E0
C0E0
C0E0
C0E0
C1C0
C3C0
FF80
FF00
FE00
ENDCHAR
STARTCHAR C
ENCODING 67
SWIDTH 450 0
DWIDTH 14 0
BBX 11 22 2 0
BITMAP
3F00
7F80
F3C0
E1E0
E0E0
C000
C000
C000
C000
C000
C000
C000
C000
C000
C000
C000
C0E0
E0E0
E1C0
7FC0
7F80
1F00
ENDCHAR
STARTCHAR D
ENCODING 68
SWIDTH 450 0
DWIDTH 14 0
BBX 11 22 2 0
BITMAP
FF00
FF80
E3C0
C1E0
C0E0
C0E0
C0E0
C0E0
C0E0
C0E0
C0E0
C0E0
C0E0
C0E0
C0E0
C0E0
C0E0
C0E0
C1C0
FFC0
FF80
FF00
ENDCHAR
STARTCHAR E
ENCODING 69
SWIDTH 450 0
DWIDTH 14 0
BBX 11 22 2 0
BITMAP
FFE0
FFE0
E000
C000
C000
C000
C000
C000
C000
FF00
FF00
FF00
C000
C000
C000
C000
C000
C000
C000
FFE0
FFE0
FFE0
ENDCHAR
STARTCHAR F
ENCODING 70
SWIDTH 450 0
DWIDTH 14 0
BBX 11 22 2 0
BITMAP
FFE0
FFE0
E000
C000
C000
C000
C000
C000
C000
FF00
FF00
FF00
C000
C000
C000
C000
C000
C000
C000
C000
C000
C000
ENDCHAR
STARTCHAR G
ENCODING 71
SWIDTH 450 0
DWIDTH 14 0
BBX 11 22 2 0
BITMAP
3F00
7F80
F3C0
E1E0
E0E0
C000
C000
C000
C000
C000
C7E0
C7E0
C7E0
C0E0
C0E0
C0E0
C0E0
E0E0
E1E0
FFE0
7FE0
1FE0
ENDCHAR
STARTCHAR H
ENCODING 72
SWIDTH 450 0
DWIDTH 14 0
BBX 11 22 2 0
BITMAP
C0E0
C0E0
C0E0
C0E0
C0E0
C0E0
C0E0
C0E0
C0E0
FFE0
FFE0
FFE0
C0E0
C0E0
C0E0
C0E0
C0E0
C0E0
C0E0
C0E0
C0E0
C0E0
ENDCHAR
STARTCHAR I
ENCODING 73
SWIDTH 261 0
DWIDTH 8 0
BBX 3 22 3 0
BITMAP
E0
E0
E0
E0
E0
E0
E0
E0
E0
E0
E0
E0
E0
E0
E0
E0
E0
E0
E0
E0
E0
E0
ENDCHAR
STARTCHAR J
ENCODING 74
SWIDTH 450 0
DWIDTH 14 0
BBX 11 22 2 0
BITMAP
00E0
00E0
00E0
00E0
00E0
00E0
00E0
00E0
00E0
00E0
00E0
00E0
00E0
00E0
00E0
00E0
C0E0
E0E0
E1C0
FFC0
7F80
1F00
ENDCHAR
STARTCHAR K
ENCODING 75
SWIDTH 450 0
DWIDTH 14 0
BBX 11 22 2 0
BITMAP
C1C0
C3C0
C380
C780
C700
CE00
DE00
FC00
F800
F800
F000
F000
F800
FC00
DC00
CE00
CF00
C700
C780
C380
C1C0
C1E0
ENDCHAR
STARTCHAR L
ENCODING 76
SWIDTH 450 0
DWIDTH 14 0
BBX 11 22 2 0
BITMAP
C000
C000
C000
C000
C000
C000
C000
C000
C000
C000
C000
C000
C000
C000
C000
C000
C000
C000
C000
FFE0
FFE0
FFE0
ENDCHAR
STARTCHAR M
ENCODING 77
SWIDTH 450 0
DWIDTH 14 0
BBX 11 22 2 0
BITMAP
E0E0
E1E0
E1E0
F1E0
F3E0
F3E0
FBE0
FFE0
FFE0
DFE0
DEE0
CEE0
CEE0
CCE0
C4E0
C4E0
C0E0
C0E0
C0E0
C0E0
C0E0
C0E0
ENDCHAR
STARTCHAR N
ENCODING 78
SWIDTH 450 0
DWIDTH 14 0
BBX 11 22 2 0
BITMAP
E0E0
E0E0
F0E0
F0E0
F0E0
F8E0
F8E0
F8E0
DCE0
DCE0
CEE0
CEE0
CEE0
C7E0
C7E0
C7E0
C3E0
C3E0
C1E0
C1E0
C1E0
C0E0
ENDCHAR
STARTCHAR O
ENCODING 79
SWIDTH 450 0
DWIDTH 14 0
BBX 11 22 2 0
BITMAP
3F00
7F80
FBC0
E1E0
E0E0
C0E0
C0E0
C0E0
C0E0
C0E0
C0E0
C0E0
C0E0
C0E0
C0E0
C0E0
C0E0
E0E0
E1C0
FFC0
7F80
1F00
ENDCHAR
STARTCHAR P
ENCODING 80
SWIDTH 450 0
DWIDTH 14 0
BBX 11 22 2 0
BITMAP
FE00
FF80
E7C0
C1C0
C0E0
C0E0
C0E0
C0E0
C1C0
C3C0
FF80
FF00
FE00
C000
C000
C000
C000
C000
C000
C000
C000
C000
ENDCHAR
STARTCHAR Q
ENCODING 81
SWIDTH 450 0
DWIDTH 14 0
BBX 11 22 2 0
BITMAP
3F00
7F80
FBC0
E1E0
E0E0
C0E0
C0E0
C0E0
C0E0
C0E0
C0E0
C0E0
C0E0
C0E0
C0E0
C0E0
C0E0
E0E0
E1C0
FFC0
7FC0
1FE0
ENDCHAR
STARTCHAR R
ENCODING 82
SWIDTH 450 0
DWIDTH 14 0
BBX 11 22 2 0
BITMAP
FE00
FF80
E7C0
C1C0
C0E0
C0E0
C0E0
C0E0
C1C0
C3C0
FF80
FF00
FF00
C700
C700
C380
C380
C380
C1C0
C1C0
C1C0
C0E0
ENDCHAR
STARTCHAR S
ENCODING 83
SWIDTH 450 0
DWIDTH 14 0
BBX 11 22 2 0
BITMAP
3F00
7F80
FBC0
E1E0
E0E0
C000
E000
F000
7800
3C00
1E00
0F00
0780
03C0
01C0
00E0
C0E0
E0E0
E1C0
7FC0
7F80
1F00
ENDCHAR
STARTCHAR T
ENCODING 84
SWIDTH 450 0
DWIDTH 14 0
BBX 11 22 2 0
BITMAP
FFE0
FFE0
0E00
0E00
0E00
0E00
0E00
0E00
0E00
0E00
0E00
0E00
0E00
0E00
0E00
0E00
0E00
0E00
0E00
0E00
0E00
0E00
ENDCHAR
STARTCHAR U
ENCODING 85
SWIDTH 450 0
DWIDTH 14 0
BBX 11 22 2 0
BITMAP
C0E0
C0E0
C0E0
C0E0
C0E0
C0E0
C0E0
C0E0
C0E0
C0E0
C0E0
C0E0
C0E0
C0E0
C0E0
C0E0
C0E0
E0E0
E1C0
FFC0
7F80
1F00
ENDCHAR
STARTCHAR V
ENCODING 86
SWIDTH 450 0
DWIDTH 14 0
BBX 11 22 2 0
BITMAP
E0E0
E0C0
E1C0
E1C0
61C0
71C0
71C0
7180
7380
3380
3B80
3B80
3B80
3B00
1F00
1F00
1F00
1F00
1E00
0E00
0E00
0E00
ENDCHAR
STARTCHAR W
ENCODING 87
SWIDTH 450 0
DWIDTH 14 0
BBX 11 22 2 0
BITMAP
C0E0
E0E0
E0E0
E0E0
E0C0
E0C0
E0C0
E0C0
E5C0
EDC0
EDC0
EFC0
EFC0
FFC0
7FC0
7FC0
7FC0
7FC0
7BC0
7BC0
7380
7380
ENDCHAR
STARTCHAR X
ENCODING 88
SWIDTH 450 0
DWIDTH 14 0
BBX 11 22 2 0
BITMAP
E0E0
E1C0
E1C0
71C0
7380
7380
3B80
3B00
3F00
1F00
1F00
1F00
3F00
3F00
3B80
3380
7380
7180
71C0
E1C0
E1C0
E0E0
ENDCHAR
STARTCHAR Y
ENCODING 89
SWIDTH 450 0
DWIDTH 14 0
BBX 11 22 2 0
BITMAP
E1E0
E1C0
E1C0
7380
7380
7380
7700
3F00
3F00
3E00
1E00
1C00
1C00
1C00
3800
3800
3800
7000
7000
7000
E000
E000
ENDCHAR
STARTCHAR Z
ENCODING 90
SWIDTH 450 0
DWIDTH 14 0
BBX 11 22 2 0
BITMAP
FFE0
FFE0
00E0
01C0
01C0
0380
0380
0700
0700
0E00
0E00
1C00
1C00
3800
3800
7800
7000
F000
E000
FFE0
FFE0
FFE0
ENDCHAR
STARTCHAR bracketleft
ENCODING 91
SWIDTH 450 0
DWIDTH 14 0
BBX 6 22 4 0
BITMAP
FC
FC
FC
E0
E0
E0
E0
E0
E0
E0
E0
E0
E0
E0
E0
E0
E0
E0
E0
FC
FC
FC
ENDCHAR
STARTCHAR backslash
ENCODING 92
SWIDTH 450 0
DWIDTH 14 0
BBX 11 22 2 0
BITMAP
E000
7000
7000
7000
3800
3800
3800
1C00
1C00
1C00
0E00
0E00
0E00
0700
0700
0780
0380
0380
01C0
01C0
01C0
00E0
ENDCHAR
STARTCHAR bracketright
ENCODING 93
SWIDTH 450 0
DWIDTH 14 0
BBX 6 22 4 0
BITMAP
FC
FC
FC
1C
1C
1C
1C
1C
1C
1C
1C
1C
1C
1C
1C
1C
1C
1C
1C
FC
FC
FC
ENDCHAR
STARTCHAR asciicircum
ENCODING 94
SWIDTH 450 0
DWIDTH 14 0
BBX 9 4 3 23
BITMAP
3C00
7E00
6700
E380
ENDCHAR
STARTCHAR underscore
ENCODING 95
SWIDTH 450 0
DWIDTH 14 0
BBX 14 2 0 -2
BITMAP
FFFC
FFFC
ENDCHAR
STARTCHAR grave
ENCODING 96
SWIDTH 450 0
DWIDTH 14 0
BBX 6 5 4 21
BITMAP
E0
70
38
18
0C
ENDCHAR
STARTCHAR a
ENCODING 97
SWIDTH 492 0
DWIDTH 16 0
BBX 13 17 1 0
BITMAP
0F80
1FC0
3FE0
78F0
7070
7070
0070
1FF0
3FF0
7FF0
7070
6070
E070
70F0
7FF8
3FF8
1F98
ENDCHAR
STARTCHAR b
ENCODING 98
SWIDTH 450 0
DWIDTH 14 0
BBX 11 23 2 0
BITMAP
C000
C000
C000
C000
C000
C000
DF00
FF80
FFC0
E1C0
E0E0
C0E0
C0E0
C0E0
C0E0
C0E0
C0E0
C0E0
E0E0
E1C0
FFC0
FF80
DF00
ENDCHAR
STARTCHAR c
ENCODING 99
SWIDTH 450 0
DWIDTH 14 0
BBX 11 17 2 0
BITMAP
1F00
7F80
FFC0
E1C0
E0E0
C0E0
C000
C000
C000
C000
C000
C0E0
E0E0
E1C0
FFC0
7F80
1F00
ENDCHAR
STARTCHAR d
ENCODING 100
SWIDTH 450 0
DWIDTH 14 0
BBX 11 23 2 0
BITMAP
00E0
00E0
00E0
00E0
00E0
00E0
1FE0
7FE0
FFE0
E1E0
E0E0
C0E0
C0E0
C0E0
C0E0
C0E0
C0E0
C0E0
E0E0
E1E0
FFE0
7FE0
1EE0
ENDCHAR
STARTCHAR e
ENCODING 101
SWIDTH 450 0
DWIDTH 14 0
BBX 11 17 2 0
BITMAP
1F00
7F80
FFC0
E1C0
E0E0
C0E0
C0E0
FFE0
FFE0
FFE0
C000
C000
E080
E1C0
FFC0
7F80
1E00
ENDCHAR
STARTCHAR f
ENCODING 102
SWIDTH 450 0
DWIDTH 14 0
BBX 11 23 2 0
BITMAP
0700
0FC0
1FC0
3DE0
38E0
3800
3800
3800
3800
FF80
FF80
FF80
3800
3800
3800
3800
3800
3800
3800
3800
3800
3800
3800
ENDCHAR
STARTCHAR g
ENCODING 103
SWIDTH 450 0
DWIDTH 14 0
BBX 11 23 2 -6
BITMAP
1FE0
7FE0
FFE0
E1C0
E0E0
C0E0
C0E0
E1E0
FFC0
7F80
3F00
7800
7000
7000
7F00
7FC0
FFC0
E0E0
C0E0
E1E0
FFC0
7FC0
3F00
ENDCHAR
STARTCHAR h
ENCODING 104
SWIDTH 450 0
DWIDTH 14 0
BBX 11 23 2 0
BITMAP
C000
C000
C000
C000
C000
C000
DF00
FF80
FFC0
E1C0
E0E0
C0E0
C0E0
C0E0
C0E0
C0E0
C0E0
C0E0
C0E0
C0E0
C0E0
C0E0
C0E0
ENDCHAR
STARTCHAR i
ENCODING 105
SWIDTH 261 0
DWIDTH 8 0
BBX 4 23 2 0
BITMAP
40
E0
E0
00
00
00
E0
E0
E0
E0
E0
E0
E0
E0
E0
E0
E0
E0
E0
E0
F0
70
30
ENDCHAR
STARTCHAR j
ENCODING 106
SWIDTH 450 0
DWIDTH 14 0
BBX 8 29 3 -6
BITMAP
03
03
03
00
00
00
03
03
03
03
03
03
03
03
03
03
03
03
03
03
03
03
03
03
E3
E7
FF
7E
18
ENDCHAR
STARTCHAR k
ENCODING 107
SWIDTH 450 0
DWIDTH 14 0
BBX 11 23 2 0
BITMAP
C000
C000
C000
C000
C000
C000
C1E0
C1C0
C380
C380
C700
CF00
CE00
DE00
DC00
FE00
FE00
FF00
F700
E380
E380
C1C0
C1E0
ENDCHAR
STARTCHAR l
ENCODING 108
SWIDTH 272 0
DWIDTH 9 0
BBX 5 23 2 0
BITMAP
C0
C0
C0
C0
C0
C0
C0
C0
C0
C0
C0
C0
C0
C0
C0
C0
C0
C0
C0
E0
F8
78
38
ENDCHAR
STARTCHAR m
ENCODING 109
SWIDTH 714 0
DWIDTH 23 0
BBX 20 17 1 0
BITMAP
EF8F80
FFDFE0
FFFFE0
F0F8F0
F07070
E07070
E07070
E07070
E07070
E07070
E07070
E07070
E07070
E07070
E07070
E07070
E07070
ENDCHAR
STARTCHAR n
ENCODING 110
SWIDTH 450 0
DWIDTH 14 0
BBX 11 17 2 0
BITMAP
DF00
FF80
FFC0
E1C0
E0E0
C0E0
C0E0
C0E0
C0E0
C0E0
C0E0
C0E0
C0E0
C0E0
C0E0
C0E0
C0E0
ENDCHAR
STARTCHAR o
ENCODING 111
SWIDTH 450 0
DWIDTH 14 0
BBX 11 17 2 0
BITMAP
1F00
7F80
FFC0
E1C0
E0E0
C0E0
C0E0
C0E0
C0E0
C0E0
C0E0
C0E0
E0E0
E1C0
FFC0
7F80
1F00
ENDCHAR
STARTCHAR p
ENCODING 112
SWIDTH 450 0
DWIDTH 14 0
BBX 11 23 2 -6
BITMAP
DF00
FF80
FFC0
E1C0
E0E0
C0E0
C0E0
C0E0
C0E0
C0E0
C0E0
C0E0
E0E0
E1C0
FFC0
FF80
DF00
C000
C000
C000
C000
C000
C000
ENDCHAR
STARTCHAR q
ENCODING 113
SWIDTH 450 0
DWIDTH 14 0
BBX 11 23 2 -6
BITMAP
1FE0
7FE0
FFE0
E1E0
E0E0
C0E0
C0E0
C0E0
C0E0
C0E0
C0E0
C0E0
E0E0
E1E0
FFE0
7FE0
1EE0
00E0
00E0
00E0
00E0
00E0
00E0
ENDCHAR
STARTCHAR r
ENCODING 114
SWIDTH 359 0
DWIDTH 11 0
BBX 9 17 1 0
BITMAP
EF80
FF80
FF80
F380
F000
E000
E000
E000
E000
E000
E000
E000
E000
E000
E000
E000
E000
ENDCHAR
STARTCHAR s
ENCODING 115
SWIDTH 404 0
DWIDTH 13 0
BBX 9 17 2 0
BITMAP
3E00
7F00
FF80
E380
C180
C180
E000
FE00
7F00
3F80
0380
C180
C180
E380
FF80
7F00
3E00
ENDCHAR
STARTCHAR t
ENCODING 116
SWIDTH 272 0
DWIDTH 9 0
BBX 7 23 1 0
BITMAP
70
70
70
70
70
70
FE
FE
FE
70
70
70
70
70
70
70
70
70
70
70
3E
3E
1E
ENDCHAR
STARTCHAR u
ENCODING 117
SWIDTH 450 0
DWIDTH 14 0
BBX 11 17 2 0
BITMAP
C0E0
C0E0
C0E0
C0E0
C0E0
C0E0
C0E0
C0E0
C0E0
C0E0
C0E0
C0E0
E0E0
E1E0
FFE0
7FE0
1EE0
ENDCHAR
STARTCHAR v
ENCODING 118
SWIDTH 450 0
DWIDTH 14 0
BBX 11 17 2 0
BITMAP
C0E0
E0E0
E0C0
E1C0
E1C0
61C0
71C0
7180
7380
7380
3380
3B80
3B00
3F00
3F00
1F00
1F00
ENDCHAR
STARTCHAR w
ENCODING 119
SWIDTH 712 0
DWIDTH 23 0
BBX 19 17 2 0
BITMAP
C0E0E0
E0E0E0
E1E0E0
E1F0E0
E1F0C0
61F1C0
71F1C0
73F1C0
73B9C0
73B980
33BB80
3BBB80
3F3B80
3F1F80
3F1F00
1F1F00
1F1F00
ENDCHAR
STARTCHAR x
ENCODING 120
SWIDTH 450 0
DWIDTH 14 0
BBX 11 17 2 0
BITMAP
E0E0
E1C0
71C0
7380
3B80
3F00
1F00
1E00
0E00
1E00
1F00
3F00
3B80
7380
71C0
E1C0
E0E0
ENDCHAR
STARTCHAR y
ENCODING 121
SWIDTH 450 0
DWIDTH 14 0
BBX 11 23 2 -6
BITMAP
70E0
70E0
71C0
71C0
31C0
39C0
39C0
3B80
3B80
1B80
1F80
1F80
1F00
1F00
0F00
0F00
0F00
0E00
0E00
4E00
FE00
FC00
3000
ENDCHAR
STARTCHAR z
ENCODING 122
SWIDTH 450 0
DWIDTH 14 0
BBX 11 17 2 0
BITMAP
FFE0
FFE0
FFE0
01C0
03C0
0780
0700
0F00
1E00
1C00
3C00
7800
7000
F000
FFE0
FFE0
FFE0
ENDCHAR
STARTCHAR braceleft
ENCODING 123
SWIDTH 450 0
DWIDTH 14 0
BBX 8 26 3 -3
BITMAP
03
0F
0F
1C
1C
1C
1C
1C
1C
18
38
78
E0
F0
38
18
18
1C
1C
1C
1C
1C
1C
0F
07
01
ENDCHAR
STARTCHAR bar
ENCODING 124
SWIDTH 450 0
DWIDTH 14 0
BBX 3 28 6 -3
BITMAP
E0
E0
E0
E0
E0
E0
E0
E0
E0
E0
E0
E0
E0
E0
E0
E0
E0
E0
E0
E0
E0
E0
E0
E0
E0
E0
E0
E0
ENDCHAR
STARTCHAR braceright
ENCODING 125
SWIDTH 450 0
DWIDTH 14 0
BBX 8 26 3 -3
BITMAP
E0
F0
F8
38
18
18
18
18
18
1C
1C
0F
07
07
0E
1C
18
18
18
18
18
18
38
F8
F0
C0
ENDCHAR
STARTCHAR asciitilde
ENCODING 126
SWIDTH 450 0
DWIDTH 14 0
BBX 12 4 1 7
BITMAP
2000
FFE0
7FF0
3F70
ENDCHAR
STARTCHAR uni0080
ENCODING 128
SWIDTH 450 0
DWIDTH 14 0
BBX 2 15 6 2
BITMAP
40
40
40
40
C0
C0
C0
C0
C0
C0
C0
C0
C0
40
40
ENDCHAR
STARTCHAR uni0081
ENCODING 129
SWIDTH 450 0
DWIDTH 14 0
BBX 3 23 6 -1
BITMAP
40
40
40
40
40
40
40
40
40
E0
E0
E0
E0
E0
E0
E0
C0
C0
C0
C0
40
40
40
ENDCHAR
STARTCHAR uni0082
ENCODING 130
SWIDTH 450 0
DWIDTH 14 0
BBX 11 24 2 -2
BITMAP
2100
2100
2100
2100
2100
2100
2100
FFE0
FFE0
E1E0
E1C0
E1C0
E1C0
E1C0
E1C0
E1E0
FFE0
7FC0
7F80
7F80
7F80
7F80
7F80
0C00
ENDCHAR
STARTCHAR uni0083
ENCODING 131
SWIDTH 450 0
DWIDTH 14 0
BBX 11 11 2 3
BITMAP
60C0
F1E0
7BE0
3FC0
1F80
1F00
3F80
7FC0
F9E0
70E0
2040
ENDCHAR
STARTCHAR uni008C
ENCODING 140
SWIDTH 450 0
DWIDTH 14 0
BBX 10 14 2 2
BITMAP
FFC0
FFC0
7FC0
7FC0
7F80
3F00
1E00
1E00
3F00
7F80
7FC0
7FC0
FFC0
FFC0
ENDCHAR
STARTCHAR uni008D
ENCODING 141
SWIDTH 450 0
DWIDTH 14 0
BBX 14 15 0 2
BITMAP
FF00
0200
0400
087C
107C
2008
4010
FF20
0060
007C
1F00
0600
0400
0800
1F00
ENDCHAR
STARTCHAR uni008E
ENCODING 142
SWIDTH 450 0
DWIDTH 14 0
BBX 13 19 1 -1
BITMAP
0600
0600
0600
0600
0600
0600
0600
0600
0610
C638
E670
76E0
3FC0
1F80
0F00
0600
0000
FFF0
FFF0
ENDCHAR
STARTCHAR uni008F
ENCODING 143
SWIDTH 450 0
DWIDTH 14 0
BBX 14 14 0 2
BITMAP
0FE0
3FF0
7878
701C
E31C
E78C
C7CC
E78C
E38C
601C
7038
3FF8
1FE0
07C0
ENDCHAR
STARTCHAR uni0090
ENCODING 144
SWIDTH 450 0
DWIDTH 14 0
BBX 11 22 2 0
BITMAP
07C0
0F80
0F80
1F00
1F00
3E00
3E00
7FE0
7FC0
FFC0
FF80
0F00
0F00
0E00
1C00
1C00
1800
3000
3000
2000
0000
4000
ENDCHAR
STARTCHAR uni0091
ENCODING 145
SWIDTH 450 0
DWIDTH 14 0
BBX 10 26 2 -6
BITMAP
0400
1E00
3100
3100
3100
3100
2D00
2D00
2D00
2D00
2D00
2D00
2D00
2D00
2D00
2D00
6D80
4EC0
DF40
BF40
BF40
BF40
DE40
6580
3F00
0C00
ENDCHAR
STARTCHAR uni0096
ENCODING 150
SWIDTH 450 0
DWIDTH 14 0
BBX 14 6 0 -6
BITMAP
FFFC
FFFC
FFFC
FFFC
FFFC
FFFC
ENDCHAR
STARTCHAR uni0097
ENCODING 151
SWIDTH 450 0
DWIDTH 14 0
BBX 14 12 0 -6
BITMAP
FFFC
FFFC
FFFC
FFFC
FFFC
FFFC
FFFC
FFFC
FFFC
FFFC
FFFC
FFFC
ENDCHAR
STARTCHAR uni0098
ENCODING 152
SWIDTH 450 0
DWIDTH 14 0
BBX 14 19 0 -6
BITMAP
FFFC
FFFC
FFFC
FFFC
FFFC
FFFC
FFFC
FFFC
FFFC
FFFC
FFFC
FFFC
FFFC
FFFC
FFFC
FFFC
FFFC
FFFC
FFFC
ENDCHAR
STARTCHAR uni0099
ENCODING 153
SWIDTH 450 0
DWIDTH 14 0
BBX 14 25 0 -6
BITMAP
FFFC
FFFC
FFFC
FFFC
FFFC
FFFC
FFFC
FFFC
FFFC
FFFC
FFFC
FFFC
FFFC
FFFC
FFFC
FFFC
FFFC
FFFC
FFFC
FFFC
FFFC
FFFC
FFFC
FFFC
FFFC
ENDCHAR
STARTCHAR uni009A
ENCODING 154
SWIDTH 450 0
DWIDTH 14 0
BBX 14 32 0 -6
BITMAP
FFFC
FFFC
FFFC
FFFC
FFFC
FFFC
FFFC
FFFC
FFFC
FFFC
FFFC
FFFC
FFFC
FFFC
FFFC
FFFC
FFFC
FFFC
FFFC
FFFC
FFFC
FFFC
FFFC
FFFC
FFFC
FFFC
FFFC
FFFC
FFFC
FFFC
FFFC
FFFC
ENDCHAR
STARTCHAR uni009B
ENCODING 155
SWIDTH 450 0
DWIDTH 14 0
BBX 1 1 0 0
BITMAP
00
ENDCHAR
STARTCHAR uni009C
ENCODING 156
SWIDTH 450 0
DWIDTH 14 0
BBX 1 1 0 0
BITMAP
00
ENDCHAR
STARTCHAR uni009D
ENCODING 157
SWIDTH 450 0
DWIDTH 14 0
BBX 1 1 0 0
BITMAP
00
ENDCHAR
STARTCHAR uni009E
ENCODING 158
SWIDTH 450 0
DWIDTH 14 0
BBX 1 1 0 0
BITMAP
00
ENDCHAR
STARTCHAR uni009F
ENCODING 159
SWIDTH 450 0
DWIDTH 14 0
BBX 1 1 0 0
BITMAP
00
ENDCHAR
STARTCHAR uni00A0
ENCODING 160
SWIDTH 450 0
DWIDTH 14 0
BBX 1 1 0 0
BITMAP
00
ENDCHAR
STARTCHAR exclamdown
ENCODING 161
SWIDTH 450 0
DWIDTH 14 0
BBX 1 1 0 0
BITMAP
00
ENDCHAR
STARTCHAR cent
ENCODING 162
SWIDTH 450 0
DWIDTH 14 0
BBX 1 1 0 0
BITMAP
00
ENDCHAR
STARTCHAR sterling
ENCODING 163
SWIDTH 450 0
DWIDTH 14 0
BBX 11 23 2 0
BITMAP
0E00
1F80
3FC0
79E0
70E0
7000
7000
7000
7000
7000
FE00
FE00
FE00
7000
7000
7000
7000
7000
7000
7000
FFE0
FFE0
FFE0
ENDCHAR
STARTCHAR currency
ENCODING 164
SWIDTH 450 0
DWIDTH 14 0
BBX 1 1 0 0
BITMAP
00
ENDCHAR
STARTCHAR yen
ENCODING 165
SWIDTH 450 0
DWIDTH 14 0
BBX 1 1 0 0
BITMAP
00
ENDCHAR
STARTCHAR brokenbar
ENCODING 166
SWIDTH 450 0
DWIDTH 14 0
BBX 1 1 0 0
BITMAP
00
ENDCHAR
STARTCHAR section
ENCODING 167
SWIDTH 812 0
DWIDTH 26 0
BBX 22 17 2 0
BITMAP
0380E0
0781E0
0701C0
0F83E0
1F83E0
1FC770
3DC778
38EE38
70FE3C
707C1C
F07C1C
F07C0C
F07C1C
F8FE1C
BFEFF8
1FC7F8
0F83E0
ENDCHAR
STARTCHAR dieresis
ENCODING 168
SWIDTH 450 0
DWIDTH 14 0
BBX 1 1 0 0
BITMAP
00
ENDCHAR
STARTCHAR copyright
ENCODING 169
SWIDTH 716 0
DWIDTH 23 0
BBX 19 23 2 0
BITMAP
00E000
07FC00
1FFF00
3E0F80
7803C0
70E1C0
F3F9E0
E7FCE0
E71CE0
C61CE0
C00C60
C00C60
C00C60
CE0C60
E71CE0
E7FCE0
E3F8E0
71F1C0
7803C0
3C0780
1FFF00
0FFE00
03F800
ENDCHAR
STARTCHAR ordfeminine
ENCODING 170
SWIDTH 450 0
DWIDTH 14 0
BBX 1 1 0 0
BITMAP
00
ENDCHAR
STARTCHAR guillemotleft
ENCODING 171
SWIDTH 450 0
DWIDTH 14 0
BBX 11 11 2 5
BITMAP
0860
18E0
79C0
F380
E700
C600
E700
73C0
39E0
18E0
0820
ENDCHAR
STARTCHAR logicalnot
ENCODING 172
SWIDTH 450 0
DWIDTH 14 0
BBX 1 1 0 0
BITMAP
00
ENDCHAR
STARTCHAR uni00AD
ENCODING 173
SWIDTH 450 0
DWIDTH 14 0
BBX 1 1 0 0
BITMAP
00
ENDCHAR
STARTCHAR registered
ENCODING 174
SWIDTH 450 0
DWIDTH 14 0
BBX 1 1 0 0
BITMAP
00
ENDCHAR
STARTCHAR macron
ENCODING 175
SWIDTH 450 0
DWIDTH 14 0
BBX 1 1 0 0
BITMAP
00
ENDCHAR
STARTCHAR degree
ENCODING 176
SWIDTH 260 0
DWIDTH 8 0
BBX 5 5 2 21
BITMAP
60
F0
98
98
F0
ENDCHAR
STARTCHAR plusminus
ENCODING 177
SWIDTH 450 0
DWIDTH 14 0
BBX 1 1 0 0
BITMAP
00
ENDCHAR
STARTCHAR uni00B2
ENCODING 178
SWIDTH 450 0
DWIDTH 14 0
BBX 1 1 0 0
BITMAP
00
ENDCHAR
STARTCHAR uni00B3
ENCODING 179
SWIDTH 450 0
DWIDTH 14 0
BBX 1 1 0 0
BITMAP
00
ENDCHAR
STARTCHAR acute
ENCODING 180
SWIDTH 450 0
DWIDTH 14 0
BBX 1 1 0 0
BITMAP
00
ENDCHAR
STARTCHAR uni00B5
ENCODING 181
SWIDTH 450 0
DWIDTH 14 0
BBX 11 21 2 -4
BITMAP
C0E0
C0E0
C0E0
C0E0
C0E0
C0E0
C0E0
C0E0
C0E0
C0E0
C0E0
C0E0
E0E0
E1E0
FFE0
FFE0
DEE0
C000
C000
C000
C000
ENDCHAR
STARTCHAR paragraph
ENCODING 182
SWIDTH 450 0
DWIDTH 14 0
BBX 1 1 0 0
BITMAP
00
ENDCHAR
STARTCHAR periodcentered
ENCODING 183
SWIDTH 450 0
DWIDTH 14 0
BBX 1 1 0 0
BITMAP
00
ENDCHAR
STARTCHAR cedilla
ENCODING 184
SWIDTH 450 0
DWIDTH 14 0
BBX 1 1 0 0
BITMAP
00
ENDCHAR
STARTCHAR uni00B9
ENCODING 185
SWIDTH 450 0
DWIDTH 14 0
BBX 1 1 0 0
BITMAP
00
ENDCHAR
STARTCHAR ordmasculine
ENCODING 186
SWIDTH 450 0
DWIDTH 14 0
BBX 1 1 0 0
BITMAP
00
ENDCHAR
STARTCHAR guillemotright
ENCODING 187
SWIDTH 450 0
DWIDTH 14 0
BBX 11 11 2 5
BITMAP
8400
C700
E780
79C0
38E0
1860
38E0
7BC0
E780
C600
8400
ENDCHAR
STARTCHAR onequarter
ENCODING 188
SWIDTH 450 0
DWIDTH 14 0
BBX 1 1 0 0
BITMAP
00
ENDCHAR
STARTCHAR onehalf
ENCODING 189
SWIDTH 450 0
DWIDTH 14 0
BBX 1 1 0 0
BITMAP
00
ENDCHAR
STARTCHAR threequarters
ENCODING 190
SWIDTH 450 0
DWIDTH 14 0
BBX 1 1 0 0
BITMAP
00
ENDCHAR
STARTCHAR questiondown
ENCODING 191
SWIDTH 450 0
DWIDTH 14 0
BBX 1 1 0 0
BITMAP
00
ENDCHAR
STARTCHAR Agrave
ENCODING 192
SWIDTH 450 0
DWIDTH 14 0
BBX 11 27 2 0
BITMAP
1C00
0E00
0600
0300
0000
0E00
1E00
1E00
1E00
1F00
1F00
1F00
3F00
3F00
3B00
3B80
3380
7380
7380
7180
7FC0
7FC0
FFC0
E1C0
E0C0
E0E0
E0E0
ENDCHAR
STARTCHAR Aacute
ENCODING 193
SWIDTH 450 0
DWIDTH 14 0
BBX 11 27 2 0
BITMAP
0700
0E00
0C00
1800
0000
0E00
1E00
1E00
1E00
1F00
1F00
1F00
3F00
3F00
3B00
3B80
3380
7380
7380
7180
7FC0
7FC0
FFC0
E1C0
E0C0
E0E0
E0E0
ENDCHAR
STARTCHAR Acircumflex
ENCODING 194
SWIDTH 450 0
DWIDTH 14 0
BBX 11 27 2 0
BITMAP
1E00
1F00
3300
7180
0000
0E00
1E00
1E00
1E00
1F00
1F00
1F00
3F00
3F00
3B00
3B80
3380
7380
7380
7180
7FC0
7FC0
FFC0
E1C0
E0C0
E0E0
E0E0
ENDCHAR
STARTCHAR Atilde
ENCODING 195
SWIDTH 450 0
DWIDTH 14 0
BBX 1 1 0 0
BITMAP
00
ENDCHAR
STARTCHAR Adieresis
ENCODING 196
SWIDTH 450 0
DWIDTH 14 0
BBX 11 27 2 0
BITMAP
3B00
3B00
1300
0000
0000
0E00
1E00
1E00
1E00
1F00
1F00
1F00
3F00
3F00
3B00
3B80
3380
7380
7380
7180
7FC0
7FC0
FFC0
E1C0
E0C0
E0E0
E0E0
ENDCHAR
STARTCHAR Aring
ENCODING 197
SWIDTH 450 0
DWIDTH 14 0
BBX 1 1 0 0
BITMAP
00
ENDCHAR
STARTCHAR AE
ENCODING 198
SWIDTH 450 0
DWIDTH 14 0
BBX 19 22 -2 0
BITMAP
01FFE0
01FFE0
01FFE0
03F000
03F000
037000
077000
077000
0E7000
0E7F80
0E7F80
1C7F80
1C7000
1C7000
3FF000
3FF000
3FF000
707000
707000
707FE0
E07FE0
E07FE0
ENDCHAR
STARTCHAR Ccedilla
ENCODING 199
SWIDTH 450 0
DWIDTH 14 0
BBX 1 1 0 0
BITMAP
00
ENDCHAR
STARTCHAR Egrave
ENCODING 200
SWIDTH 450 0
DWIDTH 14 0
BBX 11 27 2 0
BITMAP
1C00
0E00
0600
0300
0000
FFE0
FFE0
E000
C000
C000
C000
C000
C000
C000
FF00
FF00
FF00
C000
C000
C000
C000
C000
C000
C000
FFE0
FFE0
FFE0
ENDCHAR
STARTCHAR Eacute
ENCODING 201
SWIDTH 450 0
DWIDTH 14 0
BBX 11 27 2 0
BITMAP
0700
0E00
0C00
1800
0000
FFE0
FFE0
E000
C000
C000
C000
C000
C000
C000
FF00
FF00
FF00
C000
C000
C000
C000
C000
C000
C000
FFE0
FFE0
FFE0
ENDCHAR
STARTCHAR Ecircumflex
ENCODING 202
SWIDTH 450 0
DWIDTH 14 0
BBX 11 27 2 0
BITMAP
1E00
1F00
3300
7180
0000
FFE0
FFE0
E000
C000
C000
C000
C000
C000
C000
FF00
FF00
FF00
C000
C000
C000
C000
C000
C000
C000
FFE0
FFE0
FFE0
ENDCHAR
STARTCHAR Edieresis
ENCODING 203
SWIDTH 450 0
DWIDTH 14 0
BBX 11 27 2 0
BITMAP
3B00
3B00
1300
0000
0000
FFE0
FFE0
E000
C000
C000
C000
C000
C000
C000
FF00
FF00
FF00
C000
C000
C000
C000
C000
C000
C000
FFE0
FFE0
FFE0
ENDCHAR
STARTCHAR Igrave
ENCODING 204
SWIDTH 450 0
DWIDTH 14 0
BBX 5 27 5 0
BITMAP
E0
70
30
18
00
70
70
70
70
70
70
70
70
70
70
70
70
70
70
70
70
70
70
70
70
70
70
ENDCHAR
STARTCHAR Iacute
ENCODING 205
SWIDTH 450 0
DWIDTH 14 0
BBX 5 27 5 0
BITMAP
38
70
60
C0
00
70
70
70
70
70
70
70
70
70
70
70
70
70
70
70
70
70
70
70
70
70
70
ENDCHAR
STARTCHAR Icircumflex
ENCODING 206
SWIDTH 450 0
DWIDTH 14 0
BBX 8 27 3 0
BITMAP
3C
3E
66
E3
00
1C
1C
1C
1C
1C
1C
1C
1C
1C
1C
1C
1C
1C
1C
1C
1C
1C
1C
1C
1C
1C
1C
ENDCHAR
STARTCHAR Idieresis
ENCODING 207
SWIDTH 450 0
DWIDTH 14 0
BBX 6 27 4 0
BITMAP
EC
EC
4C
00
00
38
38
38
38
38
38
38
38
38
38
38
38
38
38
38
38
38
38
38
38
38
38
ENDCHAR
STARTCHAR Eth
ENCODING 208
SWIDTH 450 0
DWIDTH 14 0
BBX 1 1 0 0
BITMAP
00
ENDCHAR
STARTCHAR Ntilde
ENCODING 209
SWIDTH 450 0
DWIDTH 14 0
BBX 1 1 0 0
BITMAP
00
ENDCHAR
STARTCHAR Ograve
ENCODING 210
SWIDTH 450 0
DWIDTH 14 0
BBX 11 27 2 0
BITMAP
1C00
0E00
0600
0300
0000
3F00
7F80
FBC0
E1E0
E0E0
C0E0
C0E0
C0E0
C0E0
C0E0
C0E0
C0E0
C0E0
C0E0
C0E0
C0E0
C0E0
E0E0
E1C0
FFC0
7F80
1F00
ENDCHAR
STARTCHAR Oacute
ENCODING 211
SWIDTH 450 0
DWIDTH 14 0
BBX 11 27 2 0
BITMAP
0700
0E00
0C00
1800
0000
3F00
7F80
FBC0
E1E0
E0E0
C0E0
C0E0
C0E0
C0E0
C0E0
C0E0
C0E0
C0E0
C0E0
C0E0
C0E0
C0E0
E0E0
E1C0
FFC0
7F80
1F00
ENDCHAR
STARTCHAR Ocircumflex
ENCODING 212
SWIDTH 450 0
DWIDTH 14 0
BBX 11 27 2 0
BITMAP
1E00
1F00
3300
7180
0000
3F00
7F80
FBC0
E1E0
E0E0
C0E0
C0E0
C0E0
C0E0
C0E0
C0E0
C0E0
C0E0
C0E0
C0E0
C0E0
C0E0
E0E0
E1C0
FFC0
7F80
1F00
ENDCHAR
STARTCHAR Otilde
ENCODING 213
SWIDTH 450 0
DWIDTH 14 0
BBX 11 22 2 0
BITMAP
3F00
7F80
FBC0
E1E0
E0E0
C0E0
C0E0
C0E0
C0E0
C0E0
C0E0
C0E0
C0E0
C0E0
C0E0
C0E0
C0E0
E0E0
E1C0
FFC0
7F80
1F00
ENDCHAR
STARTCHAR Odieresis
ENCODING 214
SWIDTH 450 0
DWIDTH 14 0
BBX 11 27 2 0
BITMAP
3B00
3B00
1300
0000
0000
3F00
7F80
FBC0
E1E0
E0E0
C0E0
C0E0
C0E0
C0E0
C0E0
C0E0
C0E0
C0E0
C0E0
C0E0
C0E0
C0E0
E0E0
E1C0
FFC0
7F80
1F00
ENDCHAR
STARTCHAR multiply
ENCODING 215
SWIDTH 450 0
DWIDTH 14 0
BBX 1 1 0 0
BITMAP
00
ENDCHAR
STARTCHAR Oslash
ENCODING 216
SWIDTH 450 0
DWIDTH 14 0
BBX 1 1 0 0
BITMAP
00
ENDCHAR
STARTCHAR Ugrave
ENCODING 217
SWIDTH 450 0
DWIDTH 14 0
BBX 11 27 2 0
BITMAP
1C00
0E00
0600
0300
0000
C0E0
C0E0
C0E0
C0E0
C0E0
C0E0
C0E0
C0E0
C0E0
C0E0
C0E0
C0E0
C0E0
C0E0
C0E0
C0E0
C0E0
E0E0
E1C0
FFC0
7F80
1F00
ENDCHAR
STARTCHAR Uacute
ENCODING 218
SWIDTH 450 0
DWIDTH 14 0
BBX 11 27 2 0
BITMAP
0700
0E00
0C00
1800
0000
C0E0
C0E0
C0E0
C0E0
C0E0
C0E0
C0E0
C0E0
C0E0
C0E0
C0E0
C0E0
C0E0
C0E0
C0E0
C0E0
C0E0
E0E0
E1C0
FFC0
7F80
1F00
ENDCHAR
STARTCHAR Ucircumflex
ENCODING 219
SWIDTH 450 0
DWIDTH 14 0
BBX 11 27 2 0
BITMAP
1E00
1F00
3300
7180
0000
C0E0
C0E0
C0E0
C0E0
C0E0
C0E0
C0E0
C0E0
C0E0
C0E0
C0E0
C0E0
C0E0
C0E0
C0E0
C0E0
C0E0
E0E0
E1C0
FFC0
7F80
1F00
ENDCHAR
STARTCHAR Udieresis
ENCODING 220
SWIDTH 450 0
DWIDTH 14 0
BBX 11 27 2 0
BITMAP
3B00
3B00
1300
0000
0000
C0E0
C0E0
C0E0
C0E0
C0E0
C0E0
C0E0
C0E0
C0E0
C0E0
C0E0
C0E0
C0E0
C0E0
C0E0
C0E0
C0E0
E0E0
E1C0
FFC0
7F80
1F00
ENDCHAR
STARTCHAR Yacute
ENCODING 221
SWIDTH 450 0
DWIDTH 14 0
BBX 1 1 0 0
BITMAP
00
ENDCHAR
STARTCHAR Thorn
ENCODING 222
SWIDTH 450 0
DWIDTH 14 0
BBX 1 1 0 0
BITMAP
00
ENDCHAR
STARTCHAR germandbls
ENCODING 223
SWIDTH 450 0
DWIDTH 14 0
BBX 11 23 2 0
BITMAP
1C00
7F00
FF80
E380
E380
C180
C380
CF80
CF80
CFC0
C3C0
C0E0
C0E0
C0E0
C0E0
C0E0
C0E0
C0E0
C0E0
C1C0
CFC0
CF80
CF00
ENDCHAR
STARTCHAR agrave
ENCODING 224
SWIDTH 492 0
DWIDTH 16 0
BBX 13 23 1 0
BITMAP
0C00
0E00
0700
0300
0180
0000
0F80
1FC0
3FE0
78F0
7070
7070
0070
1FF0
3FF0
7FF0
7070
6070
E070
70F0
7FF8
3FF8
1F98
ENDCHAR
STARTCHAR aacute
ENCODING 225
SWIDTH 492 0
DWIDTH 16 0
BBX 13 23 1 0
BITMAP
0380
0700
0600
0C00
1C00
0000
0F80
1FC0
3FE0
78F0
7070
7070
0070
1FF0
3FF0
7FF0
7070
6070
E070
70F0
7FF8
3FF8
1F98
ENDCHAR
STARTCHAR acircumflex
ENCODING 226
SWIDTH 492 0
DWIDTH 16 0
BBX 13 23 1 0
BITMAP
0E00
1F00
1B80
3180
70C0
0000
0F80
1FC0
3FE0
78F0
7070
7070
0070
1FF0
3FF0
7FF0
7070
6070
E070
70F0
7FF8
3FF8
1F98
ENDCHAR
STARTCHAR atilde
ENCODING 227
SWIDTH 450 0
DWIDTH 14 0
BBX 1 1 0 0
BITMAP
00
ENDCHAR
STARTCHAR adieresis
ENCODING 228
SWIDTH 492 0
DWIDTH 16 0
BBX 13 22 1 0
BITMAP
1980
1F80
1980
0000
0000
0F80
1FC0
3FE0
78F0
7070
7070
0070
1FF0
3FF0
7FF0
7070
6070
E070
70F0
7FF8
3FF8
1F98
ENDCHAR
STARTCHAR aring
ENCODING 229
SWIDTH 450 0
DWIDTH 14 0
BBX 1 1 0 0
BITMAP
00
ENDCHAR
STARTCHAR ae
ENCODING 230
SWIDTH 626 0
DWIDTH 20 0
BBX 17 17 2 0
BITMAP
3E7C00
7FFE00
FFFF00
E3C700
C18380
018380
018380
3FFF80
7FFF80
FFFF80
E18000
C18000
C3C380
E3C700
FFFF00
7FFE00
3C7C00
ENDCHAR
STARTCHAR ccedilla
ENCODING 231
SWIDTH 450 0
DWIDTH 14 0
BBX 11 21 2 -4
BITMAP
1E00
3F80
7FC0
F1C0
E0E0
C0E0
C000
C000
C000
C000
C000
C0E0
E0E0
E1C0
FFC0
7F80
3F00
0E00
0E00
3E00
3E00
ENDCHAR
STARTCHAR egrave
ENCODING 232
SWIDTH 450 0
DWIDTH 14 0
BBX 11 23 2 0
BITMAP
1800
1C00
0E00
0600
0300
0000
1F00
7F80
FFC0
E1C0
E0E0
C0E0
C0E0
FFE0
FFE0
FFE0
C000
C000
E080
E1C0
FFC0
7F80
1E00
ENDCHAR
STARTCHAR eacute
ENCODING 233
SWIDTH 450 0
DWIDTH 14 0
BBX 11 23 2 0
BITMAP
0700
0E00
0C00
1800
3800
0000
1F00
7F80
FFC0
E1C0
E0E0
C0E0
C0E0
FFE0
FFE0
FFE0
C000
C000
E080
E1C0
FFC0
7F80
1E00
ENDCHAR
STARTCHAR ecircumflex
ENCODING 234
SWIDTH 450 0
DWIDTH 14 0
BBX 11 23 2 0
BITMAP
0E00
1E00
3B00
3380
6180
0000
1F00
7F80
FFC0
E1C0
E0E0
C0E0
C0E0
FFE0
FFE0
FFE0
C000
C000
E080
E1C0
FFC0
7F80
1E00
ENDCHAR
STARTCHAR edieresis
ENCODING 235
SWIDTH 450 0
DWIDTH 14 0
BBX 11 22 2 0
BITMAP
3300
3F00
3300
0000
0000
1F00
7F80
FFC0
E1C0
E0E0
C0E0
C0E0
FFE0
FFE0
FFE0
C000
C000
E080
E1C0
FFC0
7F80
1E00
ENDCHAR
STARTCHAR igrave
ENCODING 236
SWIDTH 261 0
DWIDTH 8 0
BBX 5 23 1 0
BITMAP
E0
60
30
38
18
00
70
70
70
70
70
70
70
70
70
70
70
70
70
70
78
38
18
ENDCHAR
STARTCHAR iacute
ENCODING 237
SWIDTH 261 0
DWIDTH 8 0
BBX 5 23 2 0
BITMAP
38
30
60
E0
C0
00
E0
E0
E0
E0
E0
E0
E0
E0
E0
E0
E0
E0
E0
E0
F0
70
30
ENDCHAR
STARTCHAR icircumflex
ENCODING 238
SWIDTH 261 0
DWIDTH 8 0
BBX 9 23 -1 0
BITMAP
1C00
3E00
3600
6300
C180
0000
1C00
1C00
1C00
1C00
1C00
1C00
1C00
1C00
1C00
1C00
1C00
1C00
1C00
1C00
1E00
0E00
0600
ENDCHAR
STARTCHAR idieresis
ENCODING 239
SWIDTH 260 0
DWIDTH 8 0
BBX 6 23 1 0
BITMAP
4C
EC
EC
00
00
00
70
70
70
70
70
70
70
70
70
70
70
70
70
78
3C
3C
0C
ENDCHAR
STARTCHAR eth
ENCODING 240
SWIDTH 450 0
DWIDTH 14 0
BBX 1 1 0 0
BITMAP
00
ENDCHAR
STARTCHAR ntilde
ENCODING 241
SWIDTH 450 0
DWIDTH 14 0
BBX 1 1 0 0
BITMAP
00
ENDCHAR
STARTCHAR ograve
ENCODING 242
SWIDTH 450 0
DWIDTH 14 0
BBX 11 27 2 0
BITMAP
3C00
1C00
0E00
0600
0000
0000
0000
0000
0000
0000
1F00
7F80
FFC0
E1C0
E0E0
C0E0
C0E0
C0E0
C0E0
C0E0
C0E0
C0E0
E0E0
E1C0
FFC0
7F80
1F00
ENDCHAR
STARTCHAR oacute
ENCODING 243
SWIDTH 450 0
DWIDTH 14 0
BBX 11 23 2 0
BITMAP
0700
0E00
0C00
1800
3800
0000
1F00
7F80
FFC0
E1C0
E0E0
C0E0
C0E0
C0E0
C0E0
C0E0
C0E0
C0E0
E0E0
E1C0
FFC0
7F80
1F00
ENDCHAR
STARTCHAR ocircumflex
ENCODING 244
SWIDTH 450 0
DWIDTH 14 0
BBX 11 23 2 0
BITMAP
0E00
1E00
3B00
3380
6180
0000
1F00
7F80
FFC0
E1C0
E0E0
C0E0
C0E0
C0E0
C0E0
C0E0
C0E0
C0E0
E0E0
E1C0
FFC0
7F80
1F00
ENDCHAR
STARTCHAR otilde
ENCODING 245
SWIDTH 450 0
DWIDTH 14 0
BBX 11 17 2 0
BITMAP
1F00
7F80
FFC0
E1C0
E0E0
C0E0
C0E0
C0E0
C0E0
C0E0
C0E0
C0E0
E0E0
E1C0
FFC0
7F80
1F00
ENDCHAR
STARTCHAR odieresis
ENCODING 246
SWIDTH 450 0
DWIDTH 14 0
BBX 11 22 2 0
BITMAP
3300
3F00
3300
0000
0000
1F00
7F80
FFC0
E1C0
E0E0
C0E0
C0E0
C0E0
C0E0
C0E0
C0E0
C0E0
E0E0
E1C0
FFC0
7F80
1F00
ENDCHAR
STARTCHAR divide
ENCODING 247
SWIDTH 448 0
DWIDTH 14 0
BBX 8 13 3 2
BITMAP
18
18
18
00
00
FF
FF
FF
00
00
18
18
18
ENDCHAR
STARTCHAR oslash
ENCODING 248
SWIDTH 450 0
DWIDTH 14 0
BBX 11 23 2 0
BITMAP
0EE0
3FC0
7FC0
F3C0
E3E0
C3E0
C3E0
C7E0
C7E0
C6E0
CEE0
CEE0
DCE0
DCE0
DCE0
F8E0
F8E0
F0E0
F0E0
F1C0
FFC0
FF80
FF00
ENDCHAR
STARTCHAR ugrave
ENCODING 249
SWIDTH 450 0
DWIDTH 14 0
BBX 11 23 2 0
BITMAP
1800
1C00
0E00
0600
0300
0000
C0E0
C0E0
C0E0
C0E0
C0E0
C0E0
C0E0
C0E0
C0E0
C0E0
C0E0
C0E0
E0E0
E1E0
FFE0
7FE0
1EE0
ENDCHAR
STARTCHAR uacute
ENCODING 250
SWIDTH 450 0
DWIDTH 14 0
BBX 11 23 2 0
BITMAP
0700
0E00
0C00
1800
3800
0000
C0E0
C0E0
C0E0
C0E0
C0E0
C0E0
C0E0
C0E0
C0E0
C0E0
C0E0
C0E0
E0E0
E1E0
FFE0
7FE0
1EE0
ENDCHAR
STARTCHAR ucircumflex
ENCODING 251
SWIDTH 450 0
DWIDTH 14 0
BBX 11 23 2 0
BITMAP
0E00
1E00
3B00
3380
6180
0000
C0E0
C0E0
C0E0
C0E0
C0E0
C0E0
C0E0
C0E0
C0E0
C0E0
C0E0
C0E0
E0E0
E1E0
FFE0
7FE0
1EE0
ENDCHAR
STARTCHAR udieresis
ENCODING 252
SWIDTH 450 0
DWIDTH 14 0
BBX 11 22 2 0
BITMAP
3300
3F00
3300
0000
0000
C0E0
C0E0
C0E0
C0E0
C0E0
C0E0
C0E0
C0E0
C0E0
C0E0
C0E0
C0E0
E0E0
E1E0
FFE0
7FE0
1EE0
ENDCHAR
STARTCHAR yacute
ENCODING 253
SWIDTH 450 0
DWIDTH 14 0
BBX 1 1 0 0
BITMAP
00
ENDCHAR
STARTCHAR thorn
ENCODING 254
SWIDTH 450 0
DWIDTH 14 0
BBX 1 1 0 0
BITMAP
00
ENDCHAR
STARTCHAR ydieresis
ENCODING 255
SWIDTH 450 0
DWIDTH 14 0
BBX 1 1 0 0
BITMAP
00
ENDCHAR
STARTCHAR Amacron
ENCODING 256
SWIDTH 450 0
DWIDTH 14 0
BBX 1 1 0 0
BITMAP
00
ENDCHAR
STARTCHAR amacron
ENCODING 257
SWIDTH 450 0
DWIDTH 14 0
BBX 1 1 0 0
BITMAP
00
ENDCHAR
STARTCHAR Abreve
ENCODING 258
SWIDTH 450 0
DWIDTH 14 0
BBX 1 1 0 0
BITMAP
00
ENDCHAR
STARTCHAR abreve
ENCODING 259
SWIDTH 450 0
DWIDTH 14 0
BBX 1 1 0 0
BITMAP
00
ENDCHAR
STARTCHAR Aogonek
ENCODING 260
SWIDTH 450 0
DWIDTH 14 0
BBX 1 1 0 0
BITMAP
00
ENDCHAR
STARTCHAR aogonek
ENCODING 261
SWIDTH 450 0
DWIDTH 14 0
BBX 1 1 0 0
BITMAP
00
ENDCHAR
STARTCHAR Cacute
ENCODING 262
SWIDTH 450 0
DWIDTH 14 0
BBX 1 1 0 0
BITMAP
00
ENDCHAR
STARTCHAR cacute
ENCODING 263
SWIDTH 450 0
DWIDTH 14 0
BBX 1 1 0 0
BITMAP
00
ENDCHAR
STARTCHAR Ccircumflex
ENCODING 264
SWIDTH 450 0
DWIDTH 14 0
BBX 1 1 0 0
BITMAP
00
ENDCHAR
STARTCHAR ccircumflex
ENCODING 265
SWIDTH 450 0
DWIDTH 14 0
BBX 1 1 0 0
BITMAP
00
ENDCHAR
STARTCHAR Cdotaccent
ENCODING 266
SWIDTH 450 0
DWIDTH 14 0
BBX 1 1 0 0
BITMAP
00
ENDCHAR
STARTCHAR cdotaccent
ENCODING 267
SWIDTH 450 0
DWIDTH 14 0
BBX 1 1 0 0
BITMAP
00
ENDCHAR
STARTCHAR Ccaron
ENCODING 268
SWIDTH 450 0
DWIDTH 14 0
BBX 1 1 0 0
BITMAP
00
ENDCHAR
STARTCHAR ccaron
ENCODING 269
SWIDTH 450 0
DWIDTH 14 0
BBX 1 1 0 0
BITMAP
00
ENDCHAR
STARTCHAR Dcaron
ENCODING 270
SWIDTH 450 0
DWIDTH 14 0
BBX 1 1 0 0
BITMAP
00
ENDCHAR
STARTCHAR dcaron
ENCODING 271
SWIDTH 450 0
DWIDTH 14 0
BBX 1 1 0 0
BITMAP
00
ENDCHAR
STARTCHAR Dcroat
ENCODING 272
SWIDTH 450 0
DWIDTH 14 0
BBX 1 1 0 0
BITMAP
00
ENDCHAR
STARTCHAR dcroat
ENCODING 273
SWIDTH 450 0
DWIDTH 14 0
BBX 1 1 0 0
BITMAP
00
ENDCHAR
STARTCHAR Emacron
ENCODING 274
SWIDTH 450 0
DWIDTH 14 0
BBX 1 1 0 0
BITMAP
00
ENDCHAR
STARTCHAR emacron
ENCODING 275
SWIDTH 450 0
DWIDTH 14 0
BBX 1 1 0 0
BITMAP
00
ENDCHAR
STARTCHAR Ebreve
ENCODING 276
SWIDTH 450 0
DWIDTH 14 0
BBX 1 1 0 0
BITMAP
00
ENDCHAR
STARTCHAR ebreve
ENCODING 277
SWIDTH 450 0
DWIDTH 14 0
BBX 1 1 0 0
BITMAP
00
ENDCHAR
STARTCHAR Edotaccent
ENCODING 278
SWIDTH 450 0
DWIDTH 14 0
BBX 1 1 0 0
BITMAP
00
ENDCHAR
STARTCHAR edotaccent
ENCODING 279
SWIDTH 450 0
DWIDTH 14 0
BBX 1 1 0 0
BITMAP
00
ENDCHAR
STARTCHAR Eogonek
ENCODING 280
SWIDTH 450 0
DWIDTH 14 0
BBX 1 1 0 0
BITMAP
00
ENDCHAR
STARTCHAR eogonek
ENCODING 281
SWIDTH 450 0
DWIDTH 14 0
BBX 1 1 0 0
BITMAP
00
ENDCHAR
STARTCHAR Ecaron
ENCODING 282
SWIDTH 450 0
DWIDTH 14 0
BBX 1 1 0 0
BITMAP
00
ENDCHAR
STARTCHAR ecaron
ENCODING 283
SWIDTH 450 0
DWIDTH 14 0
BBX 1 1 0 0
BITMAP
00
ENDCHAR
STARTCHAR Gcircumflex
ENCODING 284
SWIDTH 450 0
DWIDTH 14 0
BBX 1 1 0 0
BITMAP
00
ENDCHAR
STARTCHAR gcircumflex
ENCODING 285
SWIDTH 450 0
DWIDTH 14 0
BBX 1 1 0 0
BITMAP
00
ENDCHAR
STARTCHAR Gbreve
ENCODING 286
SWIDTH 450 0
DWIDTH 14 0
BBX 1 1 0 0
BITMAP
00
ENDCHAR
STARTCHAR gbreve
ENCODING 287
SWIDTH 450 0
DWIDTH 14 0
BBX 1 1 0 0
BITMAP
00
ENDCHAR
STARTCHAR Gdotaccent
ENCODING 288
SWIDTH 450 0
DWIDTH 14 0
BBX 1 1 0 0
BITMAP
00
ENDCHAR
STARTCHAR gdotaccent
ENCODING 289
SWIDTH 450 0
DWIDTH 14 0
BBX 1 1 0 0
BITMAP
00
ENDCHAR
STARTCHAR Gcommaaccent
ENCODING 290
SWIDTH 450 0
DWIDTH 14 0
BBX 1 1 0 0
BITMAP
00
ENDCHAR
STARTCHAR gcommaaccent
ENCODING 291
SWIDTH 450 0
DWIDTH 14 0
BBX 1 1 0 0
BITMAP
00
ENDCHAR
STARTCHAR Hcircumflex
ENCODING 292
SWIDTH 450 0
DWIDTH 14 0
BBX 1 1 0 0
BITMAP
00
ENDCHAR
STARTCHAR hcircumflex
ENCODING 293
SWIDTH 450 0
DWIDTH 14 0
BBX 1 1 0 0
BITMAP
00
ENDCHAR
STARTCHAR Hbar
ENCODING 294
SWIDTH 450 0
DWIDTH 14 0
BBX 1 1 0 0
BITMAP
00
ENDCHAR
STARTCHAR hbar
ENCODING 295
SWIDTH 450 0
DWIDTH 14 0
BBX 1 1 0 0
BITMAP
00
ENDCHAR
STARTCHAR Itilde
ENCODING 296
SWIDTH 450 0
DWIDTH 14 0
BBX 1 1 0 0
BITMAP
00
ENDCHAR
STARTCHAR itilde
ENCODING 297
SWIDTH 450 0
DWIDTH 14 0
BBX 1 1 0 0
BITMAP
00
ENDCHAR
STARTCHAR Imacron
ENCODING 298
SWIDTH 450 0
DWIDTH 14 0
BBX 1 1 0 0
BITMAP
00
ENDCHAR
STARTCHAR imacron
ENCODING 299
SWIDTH 450 0
DWIDTH 14 0
BBX 1 1 0 0
BITMAP
00
ENDCHAR
STARTCHAR Ibreve
ENCODING 300
SWIDTH 450 0
DWIDTH 14 0
BBX 1 1 0 0
BITMAP
00
ENDCHAR
STARTCHAR ibreve
ENCODING 301
SWIDTH 450 0
DWIDTH 14 0
BBX 1 1 0 0
BITMAP
00
ENDCHAR
STARTCHAR Iogonek
ENCODING 302
SWIDTH 450 0
DWIDTH 14 0
BBX 1 1 0 0
BITMAP
00
ENDCHAR
STARTCHAR iogonek
ENCODING 303
SWIDTH 450 0
DWIDTH 14 0
BBX 1 1 0 0
BITMAP
00
ENDCHAR
STARTCHAR Idotaccent
ENCODING 304
SWIDTH 450 0
DWIDTH 14 0
BBX 1 1 0 0
BITMAP
00
ENDCHAR
STARTCHAR dotlessi
ENCODING 305
SWIDTH 450 0
DWIDTH 14 0
BBX 1 1 0 0
BITMAP
00
ENDCHAR
STARTCHAR IJ
ENCODING 306
SWIDTH 450 0
DWIDTH 14 0
BBX 1 1 0 0
BITMAP
00
ENDCHAR
STARTCHAR ij
ENCODING 307
SWIDTH 450 0
DWIDTH 14 0
BBX 1 1 0 0
BITMAP
00
ENDCHAR
STARTCHAR Jcircumflex
ENCODING 308
SWIDTH 450 0
DWIDTH 14 0
BBX 1 1 0 0
BITMAP
00
ENDCHAR
STARTCHAR jcircumflex
ENCODING 309
SWIDTH 450 0
DWIDTH 14 0
BBX 1 1 0 0
BITMAP
00
ENDCHAR
STARTCHAR Kcommaaccent
ENCODING 310
SWIDTH 450 0
DWIDTH 14 0
BBX 1 1 0 0
BITMAP
00
ENDCHAR
STARTCHAR kcommaaccent
ENCODING 311
SWIDTH 450 0
DWIDTH 14 0
BBX 1 1 0 0
BITMAP
00
ENDCHAR
STARTCHAR kgreenlandic
ENCODING 312
SWIDTH 450 0
DWIDTH 14 0
BBX 1 1 0 0
BITMAP
00
ENDCHAR
STARTCHAR Lacute
ENCODING 313
SWIDTH 450 0
DWIDTH 14 0
BBX 1 1 0 0
BITMAP
00
ENDCHAR
STARTCHAR lacute
ENCODING 314
SWIDTH 450 0
DWIDTH 14 0
BBX 1 1 0 0
BITMAP
00
ENDCHAR
STARTCHAR Lcommaaccent
ENCODING 315
SWIDTH 450 0
DWIDTH 14 0
BBX 1 1 0 0
BITMAP
00
ENDCHAR
STARTCHAR lcommaaccent
ENCODING 316
SWIDTH 450 0
DWIDTH 14 0
BBX 1 1 0 0
BITMAP
00
ENDCHAR
STARTCHAR Lcaron
ENCODING 317
SWIDTH 450 0
DWIDTH 14 0
BBX 1 1 0 0
BITMAP
00
ENDCHAR
STARTCHAR lcaron
ENCODING 318
SWIDTH 450 0
DWIDTH 14 0
BBX 1 1 0 0
BITMAP
00
ENDCHAR
STARTCHAR Ldot
ENCODING 319
SWIDTH 450 0
DWIDTH 14 0
BBX 1 1 0 0
BITMAP
00
ENDCHAR
STARTCHAR ldot
ENCODING 320
SWIDTH 450 0
DWIDTH 14 0
BBX 1 1 0 0
BITMAP
00
ENDCHAR
STARTCHAR Lslash
ENCODING 321
SWIDTH 450 0
DWIDTH 14 0
BBX 1 1 0 0
BITMAP
00
ENDCHAR
STARTCHAR lslash
ENCODING 322
SWIDTH 450 0
DWIDTH 14 0
BBX 1 1 0 0
BITMAP
00
ENDCHAR
STARTCHAR Nacute
ENCODING 323
SWIDTH 450 0
DWIDTH 14 0
BBX 1 1 0 0
BITMAP
00
ENDCHAR
STARTCHAR nacute
ENCODING 324
SWIDTH 450 0
DWIDTH 14 0
BBX 1 1 0 0
BITMAP
00
ENDCHAR
STARTCHAR Ncommaaccent
ENCODING 325
SWIDTH 450 0
DWIDTH 14 0
BBX 1 1 0 0
BITMAP
00
ENDCHAR
STARTCHAR ncommaaccent
ENCODING 326
SWIDTH 450 0
DWIDTH 14 0
BBX 1 1 0 0
BITMAP
00
ENDCHAR
STARTCHAR Ncaron
ENCODING 327
SWIDTH 450 0
DWIDTH 14 0
BBX 1 1 0 0
BITMAP
00
ENDCHAR
STARTCHAR ncaron
ENCODING 328
SWIDTH 450 0
DWIDTH 14 0
BBX 1 1 0 0
BITMAP
00
ENDCHAR
STARTCHAR napostrophe
ENCODING 329
SWIDTH 450 0
DWIDTH 14 0
BBX 1 1 0 0
BITMAP
00
ENDCHAR
STARTCHAR Eng
ENCODING 330
SWIDTH 450 0
DWIDTH 14 0
BBX 1 1 0 0
BITMAP
00
ENDCHAR
STARTCHAR eng
ENCODING 331
SWIDTH 450 0
DWIDTH 14 0
BBX 1 1 0 0
BITMAP
00
ENDCHAR
STARTCHAR Omacron
ENCODING 332
SWIDTH 450 0
DWIDTH 14 0
BBX 1 1 0 0
BITMAP
00
ENDCHAR
STARTCHAR omacron
ENCODING 333
SWIDTH 450 0
DWIDTH 14 0
BBX 1 1 0 0
BITMAP
00
ENDCHAR
STARTCHAR Obreve
ENCODING 334
SWIDTH 450 0
DWIDTH 14 0
BBX 1 1 0 0
BITMAP
00
ENDCHAR
STARTCHAR obreve
ENCODING 335
SWIDTH 450 0
DWIDTH 14 0
BBX 1 1 0 0
BITMAP
00
ENDCHAR
STARTCHAR Ohungarumlaut
ENCODING 336
SWIDTH 450 0
DWIDTH 14 0
BBX 1 1 0 0
BITMAP
00
ENDCHAR
STARTCHAR ohungarumlaut
ENCODING 337
SWIDTH 450 0
DWIDTH 14 0
BBX 1 1 0 0
BITMAP
00
ENDCHAR
STARTCHAR OE
ENCODING 338
SWIDTH 450 0
DWIDTH 14 0
BBX 17 22 -1 0
BITMAP
3FFF80
7FFF80
FFFF80
E3C000
E3C000
E3C000
E3C000
E3C000
E3C000
E3FE00
E3FE00
E3FE00
E3C000
E3C000
E3C000
E3C000
E3C000
E3C000
F3C000
FFFF80
7FFF80
3DFF80
ENDCHAR
STARTCHAR oe
ENCODING 339
SWIDTH 626 0
DWIDTH 20 0
BBX 18 17 1 0
BITMAP
1F3E00
3FFF00
7FFF80
71E380
60C180
E0C1C0
E0C1C0
E0FFC0
E0FFC0
E0FFC0
E0C000
E0C000
E0C180
71E380
7FFF80
3FFF00
1F3E00
ENDCHAR
STARTCHAR Racute
ENCODING 340
SWIDTH 450 0
DWIDTH 14 0
BBX 1 1 0 0
BITMAP
00
ENDCHAR
STARTCHAR racute
ENCODING 341
SWIDTH 450 0
DWIDTH 14 0
BBX 1 1 0 0
BITMAP
00
ENDCHAR
STARTCHAR Rcommaaccent
ENCODING 342
SWIDTH 450 0
DWIDTH 14 0
BBX 1 1 0 0
BITMAP
00
ENDCHAR
STARTCHAR rcommaaccent
ENCODING 343
SWIDTH 450 0
DWIDTH 14 0
BBX 1 1 0 0
BITMAP
00
ENDCHAR
STARTCHAR Rcaron
ENCODING 344
SWIDTH 450 0
DWIDTH 14 0
BBX 1 1 0 0
BITMAP
00
ENDCHAR
STARTCHAR rcaron
ENCODING 345
SWIDTH 450 0
DWIDTH 14 0
BBX 1 1 0 0
BITMAP
00
ENDCHAR
STARTCHAR Sacute
ENCODING 346
SWIDTH 450 0
DWIDTH 14 0
BBX 1 1 0 0
BITMAP
00
ENDCHAR
STARTCHAR sacute
ENCODING 347
SWIDTH 450 0
DWIDTH 14 0
BBX 1 1 0 0
BITMAP
00
ENDCHAR
STARTCHAR Scircumflex
ENCODING 348
SWIDTH 450 0
DWIDTH 14 0
BBX 1 1 0 0
BITMAP
00
ENDCHAR
STARTCHAR scircumflex
ENCODING 349
SWIDTH 450 0
DWIDTH 14 0
BBX 1 1 0 0
BITMAP
00
ENDCHAR
STARTCHAR Scedilla
ENCODING 350
SWIDTH 450 0
DWIDTH 14 0
BBX 1 1 0 0
BITMAP
00
ENDCHAR
STARTCHAR scedilla
ENCODING 351
SWIDTH 450 0
DWIDTH 14 0
BBX 1 1 0 0
BITMAP
00
ENDCHAR
STARTCHAR Scaron
ENCODING 352
SWIDTH 450 0
DWIDTH 14 0
BBX 1 1 0 0
BITMAP
00
ENDCHAR
STARTCHAR scaron
ENCODING 353
SWIDTH 450 0
DWIDTH 14 0
BBX 1 1 0 0
BITMAP
00
ENDCHAR
STARTCHAR Tcommaaccent
ENCODING 354
SWIDTH 450 0
DWIDTH 14 0
BBX 1 1 0 0
BITMAP
00
ENDCHAR
STARTCHAR tcommaaccent
ENCODING 355
SWIDTH 450 0
DWIDTH 14 0
BBX 1 1 0 0
BITMAP
00
ENDCHAR
STARTCHAR Tcaron
ENCODING 356
SWIDTH 450 0
DWIDTH 14 0
BBX 1 1 0 0
BITMAP
00
ENDCHAR
STARTCHAR tcaron
ENCODING 357
SWIDTH 450 0
DWIDTH 14 0
BBX 1 1 0 0
BITMAP
00
ENDCHAR
STARTCHAR Tbar
ENCODING 358
SWIDTH 450 0
DWIDTH 14 0
BBX 1 1 0 0
BITMAP
00
ENDCHAR
STARTCHAR tbar
ENCODING 359
SWIDTH 450 0
DWIDTH 14 0
BBX 1 1 0 0
BITMAP
00
ENDCHAR
STARTCHAR Utilde
ENCODING 360
SWIDTH 450 0
DWIDTH 14 0
BBX 1 1 0 0
BITMAP
00
ENDCHAR
STARTCHAR utilde
ENCODING 361
SWIDTH 450 0
DWIDTH 14 0
BBX 1 1 0 0
BITMAP
00
ENDCHAR
STARTCHAR Umacron
ENCODING 362
SWIDTH 450 0
DWIDTH 14 0
BBX 1 1 0 0
BITMAP
00
ENDCHAR
STARTCHAR umacron
ENCODING 363
SWIDTH 450 0
DWIDTH 14 0
BBX 1 1 0 0
BITMAP
00
ENDCHAR
STARTCHAR Ubreve
ENCODING 364
SWIDTH 450 0
DWIDTH 14 0
BBX 1 1 0 0
BITMAP
00
ENDCHAR
STARTCHAR ubreve
ENCODING 365
SWIDTH 450 0
DWIDTH 14 0
BBX 1 1 0 0
BITMAP
00
ENDCHAR
STARTCHAR Uring
ENCODING 366
SWIDTH 450 0
DWIDTH 14 0
BBX 1 1 0 0
BITMAP
00
ENDCHAR
STARTCHAR uring
ENCODING 367
SWIDTH 450 0
DWIDTH 14 0
BBX 1 1 0 0
BITMAP
00
ENDCHAR
STARTCHAR Uhungarumlaut
ENCODING 368
SWIDTH 450 0
DWIDTH 14 0
BBX 1 1 0 0
BITMAP
00
ENDCHAR
STARTCHAR uhungarumlaut
ENCODING 369
SWIDTH 450 0
DWIDTH 14 0
BBX 1 1 0 0
BITMAP
00
ENDCHAR
STARTCHAR Uogonek
ENCODING 370
SWIDTH 450 0
DWIDTH 14 0
BBX 1 1 0 0
BITMAP
00
ENDCHAR
STARTCHAR uogonek
ENCODING 371
SWIDTH 450 0
DWIDTH 14 0
BBX 1 1 0 0
BITMAP
00
ENDCHAR
STARTCHAR Wcircumflex
ENCODING 372
SWIDTH 450 0
DWIDTH 14 0
BBX 1 1 0 0
BITMAP
00
ENDCHAR
STARTCHAR wcircumflex
ENCODING 373
SWIDTH 450 0
DWIDTH 14 0
BBX 1 1 0 0
BITMAP
00
ENDCHAR
STARTCHAR Ycircumflex
ENCODING 374
SWIDTH 450 0
DWIDTH 14 0
BBX 1 1 0 0
BITMAP
00
ENDCHAR
STARTCHAR ycircumflex
ENCODING 375
SWIDTH 450 0
DWIDTH 14 0
BBX 1 1 0 0
BITMAP
00
ENDCHAR
STARTCHAR Ydieresis
ENCODING 376
SWIDTH 450 0
DWIDTH 14 0
BBX 1 1 0 0
BITMAP
00
ENDCHAR
STARTCHAR Zacute
ENCODING 377
SWIDTH 450 0
DWIDTH 14 0
BBX 1 1 0 0
BITMAP
00
ENDCHAR
STARTCHAR zacute
ENCODING 378
SWIDTH 450 0
DWIDTH 14 0
BBX 1 1 0 0
BITMAP
00
ENDCHAR
STARTCHAR Zdotaccent
ENCODING 379
SWIDTH 450 0
DWIDTH 14 0
BBX 1 1 0 0
BITMAP
00
ENDCHAR
STARTCHAR zdotaccent
ENCODING 380
SWIDTH 450 0
DWIDTH 14 0
BBX 1 1 0 0
BITMAP
00
ENDCHAR
STARTCHAR Zcaron
ENCODING 381
SWIDTH 450 0
DWIDTH 14 0
BBX 1 1 0 0
BITMAP
00
ENDCHAR
STARTCHAR zcaron
ENCODING 382
SWIDTH 450 0
DWIDTH 14 0
BBX 1 1 0 0
BITMAP
00
ENDCHAR
STARTCHAR longs
ENCODING 383
SWIDTH 450 0
DWIDTH 14 0
BBX 1 1 0 0
BITMAP
00
ENDCHAR
STARTCHAR uni0180
ENCODING 384
SWIDTH 450 0
DWIDTH 14 0
BBX 1 1 0 0
BITMAP
00
ENDCHAR
STARTCHAR uni0181
ENCODING 385
SWIDTH 450 0
DWIDTH 14 0
BBX 1 1 0 0
BITMAP
00
ENDCHAR
STARTCHAR uni0182
ENCODING 386
SWIDTH 450 0
DWIDTH 14 0
BBX 1 1 0 0
BITMAP
00
ENDCHAR
STARTCHAR uni0183
ENCODING 387
SWIDTH 450 0
DWIDTH 14 0
BBX 1 1 0 0
BITMAP
00
ENDCHAR
STARTCHAR uni0184
ENCODING 388
SWIDTH 450 0
DWIDTH 14 0
BBX 1 1 0 0
BITMAP
00
ENDCHAR
STARTCHAR uni0185
ENCODING 389
SWIDTH 450 0
DWIDTH 14 0
BBX 1 1 0 0
BITMAP
00
ENDCHAR
STARTCHAR uni0186
ENCODING 390
SWIDTH 450 0
DWIDTH 14 0
BBX 1 1 0 0
BITMAP
00
ENDCHAR
STARTCHAR uni0187
ENCODING 391
SWIDTH 450 0
DWIDTH 14 0
BBX 1 1 0 0
BITMAP
00
ENDCHAR
STARTCHAR uni0188
ENCODING 392
SWIDTH 450 0
DWIDTH 14 0
BBX 1 1 0 0
BITMAP
00
ENDCHAR
STARTCHAR uni0189
ENCODING 393
SWIDTH 450 0
DWIDTH 14 0
BBX 1 1 0 0
BITMAP
00
ENDCHAR
STARTCHAR uni018A
ENCODING 394
SWIDTH 450 0
DWIDTH 14 0
BBX 1 1 0 0
BITMAP
00
ENDCHAR
STARTCHAR uni018B
ENCODING 395
SWIDTH 450 0
DWIDTH 14 0
BBX 1 1 0 0
BITMAP
00
ENDCHAR
STARTCHAR uni018C
ENCODING 396
SWIDTH 450 0
DWIDTH 14 0
BBX 1 1 0 0
BITMAP
00
ENDCHAR
STARTCHAR uni018D
ENCODING 397
SWIDTH 450 0
DWIDTH 14 0
BBX 1 1 0 0
BITMAP
00
ENDCHAR
STARTCHAR uni018E
ENCODING 398
SWIDTH 450 0
DWIDTH 14 0
BBX 1 1 0 0
BITMAP
00
ENDCHAR
STARTCHAR uni018F
ENCODING 399
SWIDTH 450 0
DWIDTH 14 0
BBX 1 1 0 0
BITMAP
00
ENDCHAR
STARTCHAR uni0190
ENCODING 400
SWIDTH 450 0
DWIDTH 14 0
BBX 1 1 0 0
BITMAP
00
ENDCHAR
STARTCHAR uni0191
ENCODING 401
SWIDTH 450 0
DWIDTH 14 0
BBX 1 1 0 0
BITMAP
00
ENDCHAR
STARTCHAR florin
ENCODING 402
SWIDTH 450 0
DWIDTH 14 0
BBX 1 1 0 0
BITMAP
00
ENDCHAR
STARTCHAR uni0193
ENCODING 403
SWIDTH 450 0
DWIDTH 14 0
BBX 1 1 0 0
BITMAP
00
ENDCHAR
STARTCHAR uni0194
ENCODING 404
SWIDTH 450 0
DWIDTH 14 0
BBX 1 1 0 0
BITMAP
00
ENDCHAR
STARTCHAR uni0195
ENCODING 405
SWIDTH 450 0
DWIDTH 14 0
BBX 1 1 0 0
BITMAP
00
ENDCHAR
STARTCHAR uni0196
ENCODING 406
SWIDTH 450 0
DWIDTH 14 0
BBX 1 1 0 0
BITMAP
00
ENDCHAR
STARTCHAR uni0197
ENCODING 407
SWIDTH 450 0
DWIDTH 14 0
BBX 1 1 0 0
BITMAP
00
ENDCHAR
STARTCHAR uni0198
ENCODING 408
SWIDTH 450 0
DWIDTH 14 0
BBX 1 1 0 0
BITMAP
00
ENDCHAR
STARTCHAR uni0199
ENCODING 409
SWIDTH 450 0
DWIDTH 14 0
BBX 1 1 0 0
BITMAP
00
ENDCHAR
STARTCHAR uni019A
ENCODING 410
SWIDTH 450 0
DWIDTH 14 0
BBX 1 1 0 0
BITMAP
00
ENDCHAR
STARTCHAR uni019B
ENCODING 411
SWIDTH 450 0
DWIDTH 14 0
BBX 1 1 0 0
BITMAP
00
ENDCHAR
STARTCHAR uni019C
ENCODING 412
SWIDTH 450 0
DWIDTH 14 0
BBX 1 1 0 0
BITMAP
00
ENDCHAR
STARTCHAR uni019D
ENCODING 413
SWIDTH 450 0
DWIDTH 14 0
BBX 1 1 0 0
BITMAP
00
ENDCHAR
STARTCHAR uni019E
ENCODING 414
SWIDTH 450 0
DWIDTH 14 0
BBX 1 1 0 0
BITMAP
00
ENDCHAR
STARTCHAR uni019F
ENCODING 415
SWIDTH 450 0
DWIDTH 14 0
BBX 1 1 0 0
BITMAP
00
ENDCHAR
STARTCHAR Ohorn
ENCODING 416
SWIDTH 450 0
DWIDTH 14 0
BBX 1 1 0 0
BITMAP
00
ENDCHAR
STARTCHAR ohorn
ENCODING 417
SWIDTH 450 0
DWIDTH 14 0
BBX 1 1 0 0
BITMAP
00
ENDCHAR
STARTCHAR uni01A2
ENCODING 418
SWIDTH 450 0
DWIDTH 14 0
BBX 1 1 0 0
BITMAP
00
ENDCHAR
STARTCHAR uni01A3
ENCODING 419
SWIDTH 450 0
DWIDTH 14 0
BBX 1 1 0 0
BITMAP
00
ENDCHAR
STARTCHAR uni01A4
ENCODING 420
SWIDTH 450 0
DWIDTH 14 0
BBX 1 1 0 0
BITMAP
00
ENDCHAR
STARTCHAR uni01A5
ENCODING 421
SWIDTH 450 0
DWIDTH 14 0
BBX 1 1 0 0
BITMAP
00
ENDCHAR
STARTCHAR uni01A6
ENCODING 422
SWIDTH 450 0
DWIDTH 14 0
BBX 1 1 0 0
BITMAP
00
ENDCHAR
STARTCHAR uni01A7
ENCODING 423
SWIDTH 450 0
DWIDTH 14 0
BBX 1 1 0 0
BITMAP
00
ENDCHAR
STARTCHAR uni01A8
ENCODING 424
SWIDTH 450 0
DWIDTH 14 0
BBX 1 1 0 0
BITMAP
00
ENDCHAR
STARTCHAR uni01A9
ENCODING 425
SWIDTH 450 0
DWIDTH 14 0
BBX 1 1 0 0
BITMAP
00
ENDCHAR
STARTCHAR uni01AA
ENCODING 426
SWIDTH 450 0
DWIDTH 14 0
BBX 1 1 0 0
BITMAP
00
ENDCHAR
STARTCHAR uni01AB
ENCODING 427
SWIDTH 450 0
DWIDTH 14 0
BBX 1 1 0 0
BITMAP
00
ENDCHAR
STARTCHAR uni01AC
ENCODING 428
SWIDTH 450 0
DWIDTH 14 0
BBX 1 1 0 0
BITMAP
00
ENDCHAR
STARTCHAR uni01AD
ENCODING 429
SWIDTH 450 0
DWIDTH 14 0
BBX 1 1 0 0
BITMAP
00
ENDCHAR
STARTCHAR uni01AE
ENCODING 430
SWIDTH 450 0
DWIDTH 14 0
BBX 1 1 0 0
BITMAP
00
ENDCHAR
STARTCHAR Uhorn
ENCODING 431
SWIDTH 450 0
DWIDTH 14 0
BBX 1 1 0 0
BITMAP
00
ENDCHAR
STARTCHAR uhorn
ENCODING 432
SWIDTH 450 0
DWIDTH 14 0
BBX 1 1 0 0
BITMAP
00
ENDCHAR
STARTCHAR uni01B1
ENCODING 433
SWIDTH 450 0
DWIDTH 14 0
BBX 1 1 0 0
BITMAP
00
ENDCHAR
STARTCHAR uni01B2
ENCODING 434
SWIDTH 450 0
DWIDTH 14 0
BBX 1 1 0 0
BITMAP
00
ENDCHAR
STARTCHAR uni01B3
ENCODING 435
SWIDTH 450 0
DWIDTH 14 0
BBX 1 1 0 0
BITMAP
00
ENDCHAR
STARTCHAR uni01B4
ENCODING 436
SWIDTH 450 0
DWIDTH 14 0
BBX 1 1 0 0
BITMAP
00
ENDCHAR
STARTCHAR uni01B5
ENCODING 437
SWIDTH 450 0
DWIDTH 14 0
BBX 1 1 0 0
BITMAP
00
ENDCHAR
STARTCHAR uni01B6
ENCODING 438
SWIDTH 450 0
DWIDTH 14 0
BBX 1 1 0 0
BITMAP
00
ENDCHAR
STARTCHAR uni01B7
ENCODING 439
SWIDTH 450 0
DWIDTH 14 0
BBX 1 1 0 0
BITMAP
00
ENDCHAR
STARTCHAR uni01B8
ENCODING 440
SWIDTH 450 0
DWIDTH 14 0
BBX 1 1 0 0
BITMAP
00
ENDCHAR
STARTCHAR uni01B9
ENCODING 441
SWIDTH 450 0
DWIDTH 14 0
BBX 1 1 0 0
BITMAP
00
ENDCHAR
STARTCHAR uni01BA
ENCODING 442
SWIDTH 450 0
DWIDTH 14 0
BBX 1 1 0 0
BITMAP
00
ENDCHAR
STARTCHAR uni01BB
ENCODING 443
SWIDTH 450 0
DWIDTH 14 0
BBX 1 1 0 0
BITMAP
00
ENDCHAR
STARTCHAR uni01BC
ENCODING 444
SWIDTH 450 0
DWIDTH 14 0
BBX 1 1 0 0
BITMAP
00
ENDCHAR
STARTCHAR uni01BD
ENCODING 445
SWIDTH 450 0
DWIDTH 14 0
BBX 1 1 0 0
BITMAP
00
ENDCHAR
STARTCHAR uni01BE
ENCODING 446
SWIDTH 450 0
DWIDTH 14 0
BBX 1 1 0 0
BITMAP
00
ENDCHAR
STARTCHAR uni01BF
ENCODING 447
SWIDTH 450 0
DWIDTH 14 0
BBX 1 1 0 0
BITMAP
00
ENDCHAR
STARTCHAR uni01C0
ENCODING 448
SWIDTH 450 0
DWIDTH 14 0
BBX 1 1 0 0
BITMAP
00
ENDCHAR
STARTCHAR uni01C1
ENCODING 449
SWIDTH 450 0
DWIDTH 14 0
BBX 1 1 0 0
BITMAP
00
ENDCHAR
STARTCHAR uni01C2
ENCODING 450
SWIDTH 450 0
DWIDTH 14 0
BBX 1 1 0 0
BITMAP
00
ENDCHAR
STARTCHAR uni01C3
ENCODING 451
SWIDTH 450 0
DWIDTH 14 0
BBX 1 1 0 0
BITMAP
00
ENDCHAR
STARTCHAR uni01C4
ENCODING 452
SWIDTH 450 0
DWIDTH 14 0
BBX 1 1 0 0
BITMAP
00
ENDCHAR
STARTCHAR uni01C5
ENCODING 453
SWIDTH 450 0
DWIDTH 14 0
BBX 1 1 0 0
BITMAP
00
ENDCHAR
STARTCHAR uni01C6
ENCODING 454
SWIDTH 450 0
DWIDTH 14 0
BBX 1 1 0 0
BITMAP
00
ENDCHAR
STARTCHAR uni01C7
ENCODING 455
SWIDTH 450 0
DWIDTH 14 0
BBX 1 1 0 0
BITMAP
00
ENDCHAR
STARTCHAR uni01C8
ENCODING 456
SWIDTH 450 0
DWIDTH 14 0
BBX 1 1 0 0
BITMAP
00
ENDCHAR
STARTCHAR uni01C9
ENCODING 457
SWIDTH 450 0
DWIDTH 14 0
BBX 1 1 0 0
BITMAP
00
ENDCHAR
STARTCHAR uni01CA
ENCODING 458
SWIDTH 450 0
DWIDTH 14 0
BBX 1 1 0 0
BITMAP
00
ENDCHAR
STARTCHAR uni01CB
ENCODING 459
SWIDTH 450 0
DWIDTH 14 0
BBX 1 1 0 0
BITMAP
00
ENDCHAR
STARTCHAR uni01CC
ENCODING 460
SWIDTH 450 0
DWIDTH 14 0
BBX 1 1 0 0
BITMAP
00
ENDCHAR
STARTCHAR uni01CD
ENCODING 461
SWIDTH 450 0
DWIDTH 14 0
BBX 1 1 0 0
BITMAP
00
ENDCHAR
STARTCHAR uni01CE
ENCODING 462
SWIDTH 450 0
DWIDTH 14 0
BBX 1 1 0 0
BITMAP
00
ENDCHAR
STARTCHAR uni01CF
ENCODING 463
SWIDTH 450 0
DWIDTH 14 0
BBX 1 1 0 0
BITMAP
00
ENDCHAR
STARTCHAR uni01D0
ENCODING 464
SWIDTH 450 0
DWIDTH 14 0
BBX 1 1 0 0
BITMAP
00
ENDCHAR
STARTCHAR uni01D1
ENCODING 465
SWIDTH 450 0
DWIDTH 14 0
BBX 1 1 0 0
BITMAP
00
ENDCHAR
STARTCHAR uni01D2
ENCODING 466
SWIDTH 450 0
DWIDTH 14 0
BBX 1 1 0 0
BITMAP
00
ENDCHAR
STARTCHAR uni01D3
ENCODING 467
SWIDTH 450 0
DWIDTH 14 0
BBX 1 1 0 0
BITMAP
00
ENDCHAR
STARTCHAR uni01D4
ENCODING 468
SWIDTH 450 0
DWIDTH 14 0
BBX 1 1 0 0
BITMAP
00
ENDCHAR
STARTCHAR uni01D5
ENCODING 469
SWIDTH 450 0
DWIDTH 14 0
BBX 1 1 0 0
BITMAP
00
ENDCHAR
STARTCHAR uni01D6
ENCODING 470
SWIDTH 450 0
DWIDTH 14 0
BBX 1 1 0 0
BITMAP
00
ENDCHAR
STARTCHAR uni01D7
ENCODING 471
SWIDTH 450 0
DWIDTH 14 0
BBX 1 1 0 0
BITMAP
00
ENDCHAR
STARTCHAR uni01D8
ENCODING 472
SWIDTH 450 0
DWIDTH 14 0
BBX 1 1 0 0
BITMAP
00
ENDCHAR
STARTCHAR uni01D9
ENCODING 473
SWIDTH 450 0
DWIDTH 14 0
BBX 1 1 0 0
BITMAP
00
ENDCHAR
STARTCHAR uni01DA
ENCODING 474
SWIDTH 450 0
DWIDTH 14 0
BBX 1 1 0 0
BITMAP
00
ENDCHAR
STARTCHAR uni01DB
ENCODING 475
SWIDTH 450 0
DWIDTH 14 0
BBX 1 1 0 0
BITMAP
00
ENDCHAR
STARTCHAR uni01DC
ENCODING 476
SWIDTH 450 0
DWIDTH 14 0
BBX 1 1 0 0
BITMAP
00
ENDCHAR
STARTCHAR uni01DD
ENCODING 477
SWIDTH 450 0
DWIDTH 14 0
BBX 1 1 0 0
BITMAP
00
ENDCHAR
STARTCHAR uni01DE
ENCODING 478
SWIDTH 450 0
DWIDTH 14 0
BBX 1 1 0 0
BITMAP
00
ENDCHAR
STARTCHAR uni01DF
ENCODING 479
SWIDTH 450 0
DWIDTH 14 0
BBX 1 1 0 0
BITMAP
00
ENDCHAR
STARTCHAR uni01E0
ENCODING 480
SWIDTH 450 0
DWIDTH 14 0
BBX 1 1 0 0
BITMAP
00
ENDCHAR
STARTCHAR uni01E1
ENCODING 481
SWIDTH 450 0
DWIDTH 14 0
BBX 1 1 0 0
BITMAP
00
ENDCHAR
STARTCHAR uni01E2
ENCODING 482
SWIDTH 450 0
DWIDTH 14 0
BBX 1 1 0 0
BITMAP
00
ENDCHAR
STARTCHAR uni01E3
ENCODING 483
SWIDTH 450 0
DWIDTH 14 0
BBX 1 1 0 0
BITMAP
00
ENDCHAR
STARTCHAR uni01E4
ENCODING 484
SWIDTH 450 0
DWIDTH 14 0
BBX 1 1 0 0
BITMAP
00
ENDCHAR
STARTCHAR uni01E5
ENCODING 485
SWIDTH 450 0
DWIDTH 14 0
BBX 1 1 0 0
BITMAP
00
ENDCHAR
STARTCHAR Gcaron
ENCODING 486
SWIDTH 450 0
DWIDTH 14 0
BBX 1 1 0 0
BITMAP
00
ENDCHAR
STARTCHAR gcaron
ENCODING 487
SWIDTH 450 0
DWIDTH 14 0
BBX 1 1 0 0
BITMAP
00
ENDCHAR
STARTCHAR uni01E8
ENCODING 488
SWIDTH 450 0
DWIDTH 14 0
BBX 1 1 0 0
BITMAP
00
ENDCHAR
STARTCHAR uni01E9
ENCODING 489
SWIDTH 450 0
DWIDTH 14 0
BBX 1 1 0 0
BITMAP
00
ENDCHAR
STARTCHAR uni01EA
ENCODING 490
SWIDTH 450 0
DWIDTH 14 0
BBX 1 1 0 0
BITMAP
00
ENDCHAR
STARTCHAR uni01EB
ENCODING 491
SWIDTH 450 0
DWIDTH 14 0
BBX 1 1 0 0
BITMAP
00
ENDCHAR
STARTCHAR uni01EC
ENCODING 492
SWIDTH 450 0
DWIDTH 14 0
BBX 1 1 0 0
BITMAP
00
ENDCHAR
STARTCHAR uni01ED
ENCODING 493
SWIDTH 450 0
DWIDTH 14 0
BBX 1 1 0 0
BITMAP
00
ENDCHAR
STARTCHAR uni01EE
ENCODING 494
SWIDTH 450 0
DWIDTH 14 0
BBX 1 1 0 0
BITMAP
00
ENDCHAR
STARTCHAR uni01EF
ENCODING 495
SWIDTH 450 0
DWIDTH 14 0
BBX 1 1 0 0
BITMAP
00
ENDCHAR
STARTCHAR uni01F0
ENCODING 496
SWIDTH 450 0
DWIDTH 14 0
BBX 1 1 0 0
BITMAP
00
ENDCHAR
STARTCHAR uni01F1
ENCODING 497
SWIDTH 450 0
DWIDTH 14 0
BBX 1 1 0 0
BITMAP
00
ENDCHAR
STARTCHAR uni01F2
ENCODING 498
SWIDTH 450 0
DWIDTH 14 0
BBX 1 1 0 0
BITMAP
00
ENDCHAR
STARTCHAR uni01F3
ENCODING 499
SWIDTH 450 0
DWIDTH 14 0
BBX 1 1 0 0
BITMAP
00
ENDCHAR
STARTCHAR uni01F4
ENCODING 500
SWIDTH 450 0
DWIDTH 14 0
BBX 1 1 0 0
BITMAP
00
ENDCHAR
STARTCHAR uni01F5
ENCODING 501
SWIDTH 450 0
DWIDTH 14 0
BBX 1 1 0 0
BITMAP
00
ENDCHAR
STARTCHAR uni01F6
ENCODING 502
SWIDTH 450 0
DWIDTH 14 0
BBX 1 1 0 0
BITMAP
00
ENDCHAR
STARTCHAR uni01F7
ENCODING 503
SWIDTH 450 0
DWIDTH 14 0
BBX 1 1 0 0
BITMAP
00
ENDCHAR
STARTCHAR uni01F8
ENCODING 504
SWIDTH 450 0
DWIDTH 14 0
BBX 1 1 0 0
BITMAP
00
ENDCHAR
STARTCHAR uni01F9
ENCODING 505
SWIDTH 450 0
DWIDTH 14 0
BBX 1 1 0 0
BITMAP
00
ENDCHAR
STARTCHAR Aringacute
ENCODING 506
SWIDTH 450 0
DWIDTH 14 0
BBX 1 1 0 0
BITMAP
00
ENDCHAR
STARTCHAR aringacute
ENCODING 507
SWIDTH 450 0
DWIDTH 14 0
BBX 1 1 0 0
BITMAP
00
ENDCHAR
STARTCHAR AEacute
ENCODING 508
SWIDTH 450 0
DWIDTH 14 0
BBX 1 1 0 0
BITMAP
00
ENDCHAR
STARTCHAR aeacute
ENCODING 509
SWIDTH 450 0
DWIDTH 14 0
BBX 1 1 0 0
BITMAP
00
ENDCHAR
STARTCHAR Oslashacute
ENCODING 510
SWIDTH 450 0
DWIDTH 14 0
BBX 1 1 0 0
BITMAP
00
ENDCHAR
STARTCHAR oslashacute
ENCODING 511
SWIDTH 450 0
DWIDTH 14 0
BBX 1 1 0 0
BITMAP
00
ENDCHAR
STARTCHAR uni0200
ENCODING 512
SWIDTH 450 0
DWIDTH 14 0
BBX 1 1 0 0
BITMAP
00
ENDCHAR
STARTCHAR uni0201
ENCODING 513
SWIDTH 450 0
DWIDTH 14 0
BBX 1 1 0 0
BITMAP
00
ENDCHAR
STARTCHAR uni0202
ENCODING 514
SWIDTH 450 0
DWIDTH 14 0
BBX 1 1 0 0
BITMAP
00
ENDCHAR
STARTCHAR uni0203
ENCODING 515
SWIDTH 450 0
DWIDTH 14 0
BBX 1 1 0 0
BITMAP
00
ENDCHAR
STARTCHAR uni0204
ENCODING 516
SWIDTH 450 0
DWIDTH 14 0
BBX 1 1 0 0
BITMAP
00
ENDCHAR
STARTCHAR uni0205
ENCODING 517
SWIDTH 450 0
DWIDTH 14 0
BBX 1 1 0 0
BITMAP
00
ENDCHAR
STARTCHAR uni0206
ENCODING 518
SWIDTH 450 0
DWIDTH 14 0
BBX 1 1 0 0
BITMAP
00
ENDCHAR
STARTCHAR uni0207
ENCODING 519
SWIDTH 450 0
DWIDTH 14 0
BBX 1 1 0 0
BITMAP
00
ENDCHAR
STARTCHAR uni0208
ENCODING 520
SWIDTH 450 0
DWIDTH 14 0
BBX 1 1 0 0
BITMAP
00
ENDCHAR
STARTCHAR uni0209
ENCODING 521
SWIDTH 450 0
DWIDTH 14 0
BBX 1 1 0 0
BITMAP
00
ENDCHAR
STARTCHAR uni020A
ENCODING 522
SWIDTH 450 0
DWIDTH 14 0
BBX 1 1 0 0
BITMAP
00
ENDCHAR
STARTCHAR uni020B
ENCODING 523
SWIDTH 450 0
DWIDTH 14 0
BBX 1 1 0 0
BITMAP
00
ENDCHAR
STARTCHAR uni020C
ENCODING 524
SWIDTH 450 0
DWIDTH 14 0
BBX 1 1 0 0
BITMAP
00
ENDCHAR
STARTCHAR uni020D
ENCODING 525
SWIDTH 450 0
DWIDTH 14 0
BBX 1 1 0 0
BITMAP
00
ENDCHAR
STARTCHAR uni020E
ENCODING 526
SWIDTH 450 0
DWIDTH 14 0
BBX 1 1 0 0
BITMAP
00
ENDCHAR
STARTCHAR uni020F
ENCODING 527
SWIDTH 450 0
DWIDTH 14 0
BBX 1 1 0 0
BITMAP
00
ENDCHAR
STARTCHAR uni0210
ENCODING 528
SWIDTH 450 0
DWIDTH 14 0
BBX 1 1 0 0
BITMAP
00
ENDCHAR
STARTCHAR uni0211
ENCODING 529
SWIDTH 450 0
DWIDTH 14 0
BBX 1 1 0 0
BITMAP
00
ENDCHAR
STARTCHAR uni0212
ENCODING 530
SWIDTH 450 0
DWIDTH 14 0
BBX 1 1 0 0
BITMAP
00
ENDCHAR
STARTCHAR uni0213
ENCODING 531
SWIDTH 450 0
DWIDTH 14 0
BBX 1 1 0 0
BITMAP
00
ENDCHAR
STARTCHAR uni0214
ENCODING 532
SWIDTH 450 0
DWIDTH 14 0
BBX 1 1 0 0
BITMAP
00
ENDCHAR
STARTCHAR uni0215
ENCODING 533
SWIDTH 450 0
DWIDTH 14 0
BBX 1 1 0 0
BITMAP
00
ENDCHAR
STARTCHAR uni0216
ENCODING 534
SWIDTH 450 0
DWIDTH 14 0
BBX 1 1 0 0
BITMAP
00
ENDCHAR
STARTCHAR uni0217
ENCODING 535
SWIDTH 450 0
DWIDTH 14 0
BBX 1 1 0 0
BITMAP
00
ENDCHAR
STARTCHAR Scommaaccent
ENCODING 536
SWIDTH 450 0
DWIDTH 14 0
BBX 1 1 0 0
BITMAP
00
ENDCHAR
STARTCHAR scommaaccent
ENCODING 537
SWIDTH 450 0
DWIDTH 14 0
BBX 1 1 0 0
BITMAP
00
ENDCHAR
STARTCHAR uni021A
ENCODING 538
SWIDTH 450 0
DWIDTH 14 0
BBX 1 1 0 0
BITMAP
00
ENDCHAR
STARTCHAR uni021B
ENCODING 539
SWIDTH 450 0
DWIDTH 14 0
BBX 1 1 0 0
BITMAP
00
ENDCHAR
STARTCHAR uni021C
ENCODING 540
SWIDTH 450 0
DWIDTH 14 0
BBX 1 1 0 0
BITMAP
00
ENDCHAR
STARTCHAR uni021D
ENCODING 541
SWIDTH 450 0
DWIDTH 14 0
BBX 1 1 0 0
BITMAP
00
ENDCHAR
STARTCHAR uni021E
ENCODING 542
SWIDTH 450 0
DWIDTH 14 0
BBX 1 1 0 0
BITMAP
00
ENDCHAR
STARTCHAR uni021F
ENCODING 543
SWIDTH 450 0
DWIDTH 14 0
BBX 1 1 0 0
BITMAP
00
ENDCHAR
STARTCHAR Euro
ENCODING 8364
SWIDTH 536 0
DWIDTH 17 0
BBX 14 22 2 0
BITMAP
07E0
0FF0
1E78
1C38
381C
3800
3800
FFF0
FFE0
FFE0
3800
FFC0
FFC0
FFC0
3800
3800
381C
1C1C
1C38
1FF8
0FF0
03C0
ENDCHAR
STARTCHAR arrowleft
ENCODING 8592
SWIDTH 720 0
DWIDTH 23 0
BBX 21 17 1 0
BITMAP
008000
01C000
03C000
078000
0F0000
1E0000
3C0000
7FFFF8
FFFFF8
7FFFF8
3C0000
1E0000
0F0000
078000
03C000
01C000
008000
ENDCHAR
STARTCHAR arrowup
ENCODING 8593
SWIDTH 626 0
DWIDTH 20 0
BBX 16 20 2 -2
BITMAP
0180
03C0
07E0
0FF0
1FF8
3DBC
799E
F18F
6186
0180
0180
0180
0180
0180
0180
0180
0180
0180
0180
0180
ENDCHAR
STARTCHAR arrowright
ENCODING 8594
SWIDTH 720 0
DWIDTH 23 0
BBX 21 17 1 0
BITMAP
000800
001C00
001E00
000F00
000780
0003C0
0001E0
FFFFF0
FFFFF8
FFFFF0
0001E0
0003C0
000780
000F00
001E00
001C00
000800
ENDCHAR
STARTCHAR arrowdown
ENCODING 8595
SWIDTH 626 0
DWIDTH 20 0
BBX 16 20 2 -1
BITMAP
0180
0180
0180
0180
0180
0180
0180
0180
0180
0180
0180
6186
F18F
799E
3DBC
1FF8
0FF0
07E0
03C0
0180
ENDCHAR
STARTCHAR uni2196
ENCODING 8598
SWIDTH 574 0
DWIDTH 18 0
BBX 15 15 2 1
BITMAP
FFE0
FFE0
FFE0
F800
FC00
DE00
CF00
C780
C3C0
C1E0
C0F0
C078
003C
001E
000C
ENDCHAR
STARTCHAR uni2197
ENCODING 8599
SWIDTH 574 0
DWIDTH 18 0
BBX 15 16 2 0
BITMAP
1FFE
1FFE
1FFE
003E
007E
00FE
01EE
03CE
078E
0F0E
1E0E
3C0E
7800
F000
E000
4000
ENDCHAR
STARTCHAR uni2198
ENCODING 8600
SWIDTH 570 0
DWIDTH 18 0
BBX 15 15 2 0
BITMAP
4000
E000
F000
780E
3C0E
1E0E
0F0E
078E
03CE
01EE
00FE
007E
1FFE
1FFE
1FFE
ENDCHAR
STARTCHAR uni2199
ENCODING 8601
SWIDTH 570 0
DWIDTH 18 0
BBX 16 15 1 0
BITMAP
0006
000F
001E
E03C
E078
E0F0
E1E0
E3C0
E780
EF00
FE00
FC00
FFF0
FFF0
FFF0
ENDCHAR
STARTCHAR uni26DF
ENCODING 9951
SWIDTH 2667 0
DWIDTH 85 0
BBX 82 22 2 0
BITMAP
FFFFFFFFFFFFFFFFE00000
FFFFFFFFFFFFFFFFE7F000
FFFFFFFFFFFFFFFFE7FC00
FFFFFFFFFFFFFFFFE7FF00
FFFFFFFFFFFFFFFFE7FF80
FFFFFFFFFFFFFFFFE7E100
FFFFFFFFFFFFFFFFE7E100
FFFFFFFFFFFFFFFFE7E100
FFFFFFFFFFFFFFFFE7E180
FFFFFFFFFFFFFFFFE7E180
FFFFFFFFFFFFFFFFE7E180
FFFFFFFFFFFFFFFFF7FFC0
FFFFFFFFFFFFFFFFF7FFC0
FFFFFFFFFFFFFFFFF7FFC0
FFFFFFFFFFFFFFFFF7FF80
FFFFFFFFFFFFFFFFE7FFC0
00C183800000067007FFC0
02D0A540000016FFFFCBC0
01E7CFA000000F7FFFFDC0
01E3D7E000000F7FFFBFC0
01E3C78000000F00003C00
00C1838000000600001C00
ENDCHAR
STARTCHAR uni2794
ENCODING 10132
SWIDTH 720 0
DWIDTH 23 0
BBX 21 17 1 0
BITMAP
000800
001C00
001E00
000F00
000780
0003C0
0001E0
FFFFF0
FFFFF8
FFFFF0
0001E0
0003C0
000780
000F00
001E00
001C00
000800
ENDCHAR
STARTCHAR car
ENCODING 17979
SWIDTH 984 0
DWIDTH 31 0
BBX 28 10 2 0
BITMAP
03C10000
0C008000
18000000
7FFFFF00
FFFFFFE0
E3FFFC60
DDFFFB90
1FFFFBC0
1C0003C0
1C000380
ENDCHAR
STARTCHAR uniE031
ENCODING 57393
SWIDTH 415 0
DWIDTH 13 0
BBX 9 18 2 0
BITMAP
0800
0800
1C00
1C00
3C00
3C00
3C00
3C00
1C00
FC00
FC00
FC00
6600
2600
6200
4300
4100
0180
ENDCHAR
STARTCHAR .notdef
ENCODING -1
SWIDTH 364 0
DWIDTH 12 0
BBX 8 21 1 0
BITMAP
FF
81
81
81
81
81
81
81
81
81
81
81
81
81
81
81
81
81
81
81
FF
ENDCHAR
STARTCHAR .null
ENCODING -1
SWIDTH 0 0
DWIDTH 0 0
BBX 1 1 0 0
BITMAP
00
ENDCHAR
STARTCHAR nonmarkingreturn
ENCODING -1
SWIDTH 333 0
DWIDTH 11 0
BBX 1 1 0 0
BITMAP
00
ENDCHAR
ENDFONT
